<?xml version="1.0" encoding="utf-8"?>
<!-- Generator: Adobe Illustrator 24.0.0, SVG Export Plug-In . SVG Version: 6.00 Build 0)  -->
<svg version="1.1" id="Ebene_1" xmlns="http://www.w3.org/2000/svg" xmlns:xlink="http://www.w3.org/1999/xlink" x="0px" y="0px"
	 viewBox="0 0 111.7 111.7" style="enable-background:new 0 0 111.7 111.7;" xml:space="preserve">
<style type="text/css">
	.st0{fill:none;}
	.st1{fill:#835113;}
	.st2{opacity:0.3;}
	.st3{fill:#020203;}
	.st4{opacity:0.3;fill:#020203;enable-background:new    ;}
	.st5{opacity:0.11;fill:#020203;enable-background:new    ;}
	.st6{opacity:0.29;fill:#020203;enable-background:new    ;}
	.st7{fill:#9AC43B;}
</style>
<rect id="chart-background-color" x="-57.6" y="-3" class="st0" width="228.2" height="116"/>
<g id="chart-container">
	<g id="i251" transform="translate(72,50)scale(1.4375)">
		<g>
			<g>
				<g transform="translate(0,32)scale(2)">
					<g>
						<path class="st1" d="M-5.6-21.9l-11.1,5.6v11.1l11.2,5.6L5.6-5.2v-11.2L-5.6-21.9z"/>
						<g class="st2">
							<path class="st3" d="M-0.5-3.9c-0.1,0.1-0.2,0.2-0.2,0.3s0.1,0.2,0.2,0.1c0.1-0.1,0.2-0.2,0.2-0.3S-0.4-4-0.5-3.9z"/>
							<path class="st3" d="M-2.4-3.3c0.1-0.1,0.2-0.2,0.2-0.4s-0.1-0.2-0.2-0.1c-0.1,0.1-0.2,0.2-0.2,0.4S-2.5-3.2-2.4-3.3z"/>
							<path class="st3" d="M-1.1-5.1c0.1,0,0.2-0.2,0.2-0.2c0-0.1-0.1-0.1-0.2-0.1s-0.2,0.2-0.2,0.2C-1.3-5.1-1.2-5.1-1.1-5.1z"/>
							<path class="st3" d="M1.6-11.4c0-0.1-0.1-0.2-0.2-0.1s-0.2,0.2-0.2,0.4s0.1,0.2,0.2,0.1S1.6-11.3,1.6-11.4z"/>
							<path class="st3" d="M2.2-9c0-0.2-0.2-0.4-0.5-0.2C1.5-9.1,1.2-8.8,1.2-8.5c0,0.2,0.2,0.4,0.5,0.2S2.2-8.8,2.2-9z"/>
							<path class="st3" d="M4.9-6.1c0-0.2-0.2-0.3-0.5-0.2C4.2-6.2,3.9-5.9,3.9-5.6c0,0.2,0.2,0.3,0.5,0.2C4.7-5.5,4.9-5.8,4.9-6.1
								z"/>
							<path class="st3" d="M-2.5-5.5C-2.5-5.6-2.5-5.6-2.5-5.5C-2.5-5.6-2.5-5.5-2.5-5.5L-2.5-5.5L-2.5-5.5z"/>
							<path class="st3" d="M-4.6-7.8C-4.6-7.8-4.7-7.8-4.6-7.8C-4.7-7.8-4.7-7.8-4.6-7.8C-4.7-7.7-4.7-7.7-4.6-7.8
								C-4.7-7.8-4.6-7.8-4.6-7.8z"/>
							<path class="st3" d="M-4.2-2L-4.2-2L-4.2-2C-4.2-1.9-4.2-1.9-4.2-2C-4.2-1.9-4.2-1.9-4.2-2z"/>
							<path class="st3" d="M3.8-10.2c-0.1,0-0.1,0.1-0.1,0.2s0.1,0.1,0.1,0.1s0.1-0.1,0.1-0.2S3.9-10.3,3.8-10.2z"/>
							<path class="st3" d="M3.1-6C3-6,3-5.9,3-5.8s0.1,0.1,0.1,0.1s0.1-0.1,0.1-0.2C3.3-6,3.2-6.1,3.1-6z"/>
							<path class="st3" d="M4.8-12.5c-0.1,0.1-0.2,0.2-0.2,0.3s0.1,0.2,0.2,0.1C4.9-12.2,5-12.3,5-12.4S5-12.5,4.8-12.5z"/>
							<path class="st3" d="M0.1-10.5C0.1-10.5,0.2-10.5,0.1-10.5C0.2-10.5,0.2-10.5,0.1-10.5C0.2-10.6,0.2-10.6,0.1-10.5
								C0.1-10.6,0.1-10.5,0.1-10.5z"/>
							<path class="st3" d="M-2.5-10.4c0.1-0.1,0.2-0.2,0.2-0.4s-0.1-0.2-0.2-0.1s-0.2,0.2-0.2,0.4S-2.6-10.3-2.5-10.4z"/>
							<path class="st3" d="M-2.8-8c0.1-0.1,0.2-0.2,0.2-0.4c0-0.1-0.1-0.2-0.2-0.1S-3-8.2-3-8.1C-3.1-7.9-2.9-7.9-2.8-8z"/>
							<path class="st3" d="M-2.4-6.7c-0.1,0.1-0.2,0.2-0.2,0.4s0.1,0.2,0.2,0.1s0.2-0.2,0.2-0.4S-2.3-6.7-2.4-6.7z"/>
							<path class="st3" d="M-4.9-9.7C-5-9.6-5.1-9.5-5.1-9.3S-5-9.1-4.9-9.2s0.2-0.2,0.2-0.4S-4.8-9.8-4.9-9.7z"/>
							<path class="st3" d="M5-7.7c0-0.1-0.1-0.2-0.2-0.1S4.6-7.6,4.6-7.5s0.1,0.2,0.2,0.1C5-7.4,5-7.6,5-7.7z"/>
							<path class="st3" d="M1.9-6.7c0-0.1-0.1-0.2-0.2-0.1C1.6-6.7,1.5-6.6,1.5-6.5s0.1,0.2,0.2,0.1C1.8-6.5,1.9-6.6,1.9-6.7z"/>
							<path class="st3" d="M-4-5.4c0-0.1-0.1-0.2-0.2-0.1c-0.1,0.1-0.2,0.2-0.2,0.3S-4.3-5-4.2-5.1C-4.1-5.2-4-5.3-4-5.4z"/>
							<path class="st3" d="M3-8.7c0.1-0.1,0.2-0.2,0.2-0.4s0-0.1-0.2-0.1S2.8-9,2.8-8.8S2.9-8.6,3-8.7z"/>
							<path class="st3" d="M-2.8-2c0.1-0.1,0.2-0.2,0.2-0.4s-0.1-0.2-0.2-0.1S-3-2.3-3-2.2C-3.1-2-2.9-2-2.8-2z"/>
							<path class="st3" d="M2.6-4.5C2.5-4.4,2.5-4.4,2.5-4.3s0,0.1,0.1,0.1s0.1-0.1,0.1-0.2S2.7-4.5,2.6-4.5z"/>
							<path class="st3" d="M1.2-5.5c-0.1,0-0.1,0.1-0.1,0.2s0.1,0.1,0.1,0.1s0.1-0.1,0.1-0.2S1.3-5.5,1.2-5.5z"/>
							<path class="st3" d="M0-8.5c-0.1,0.1-0.2,0.2-0.2,0.3C-0.2-8.1-0.1-8,0-8.1c0.1-0.1,0.2-0.2,0.2-0.3S0.1-8.6,0-8.5z"/>
							<path class="st3" d="M2.6-12.9c0,0.1,0.1,0.2,0.2,0.1C2.9-12.9,3-13,3-13.1s-0.1-0.2-0.2-0.1C2.7-13.2,2.6-13.1,2.6-12.9z"/>
							<path class="st3" d="M0.2-7.2c0,0.1,0.1,0.2,0.2,0.1s0.2-0.2,0.2-0.3S0.5-7.6,0.4-7.5C0.3-7.5,0.2-7.4,0.2-7.2z"/>
							<path class="st3" d="M-3.9-2.9c0.1,0,0.2-0.2,0.2-0.2c0-0.1-0.1-0.1-0.2-0.1C-4-3.2-4.1-3-4.1-3S-4-2.9-3.9-2.9z"/>
							<path class="st3" d="M0.5-12.9c0-0.1-0.1-0.2-0.2-0.1s-0.2,0.2-0.2,0.4s0.1,0.2,0.2,0.1S0.5-12.8,0.5-12.9z"/>
							<path class="st3" d="M2.9-11.7C2.9-11.7,2.8-11.6,2.9-11.7C2.8-11.6,2.9-11.6,2.9-11.7C2.9-11.6,3-11.7,2.9-11.7
								C3-11.7,3-11.7,2.9-11.7z"/>
							<path class="st3" d="M4.2-14.5C4.2-14.5,4.2-14.4,4.2-14.5C4.2-14.4,4.2-14.4,4.2-14.5C4.3-14.4,4.3-14.5,4.2-14.5
								C4.3-14.5,4.3-14.5,4.2-14.5z"/>
							<path class="st3" d="M-2.3-4.2C-2.3-4.2-2.3-4.1-2.3-4.2C-2.3-4.1-2.3-4.1-2.3-4.2C-2.2-4.1-2.2-4.1-2.3-4.2
								C-2.2-4.2-2.2-4.2-2.3-4.2z"/>
							<path class="st3" d="M-4.9-6.4C-5-6.4-5-6.4-4.9-6.4C-5-6.3-4.9-6.3-4.9-6.4L-4.9-6.4C-4.9-6.4-4.9-6.5-4.9-6.4z"/>
							<path class="st3" d="M2.3-10C2.3-10,2.3-10.1,2.3-10c-0.1,0-0.1,0-0.1,0.1s0,0.1,0.1,0C2.3-9.9,2.3-9.9,2.3-10z"/>
							<path class="st3" d="M3-7.1C3-7.1,2.9-7.2,3-7.1c-0.1,0-0.1,0-0.1,0.1S2.9-6.9,3-7.1C2.9-7,3-7.1,3-7.1z"/>
							<path class="st3" d="M5.1-9.9L5.1-9.9C5-9.9,5-9.9,5-9.8s0,0.1,0.1,0C5.1-9.8,5.1-9.8,5.1-9.9z"/>
							<path class="st3" d="M-1.2-8.2C-1.2-8.3-1.3-8.3-1.2-8.2c-0.1,0-0.1,0-0.1,0.1C-1.3-8-1.3-8.1-1.2-8.2
								C-1.3-8.1-1.2-8.2-1.2-8.2z"/>
							<path class="st3" d="M-1.1-10.6c-0.1,0-0.2,0.2-0.2,0.2c0,0.1,0.1,0.1,0.2,0.1s0.2-0.2,0.2-0.2C-1-10.6-1.1-10.6-1.1-10.6z"
								/>
						</g>
						<path class="st4" d="M-7.6-8.7c0.1,0.1,0.2,0,0.2-0.1s-0.1-0.4-0.2-0.4s-0.2,0-0.2,0.1S-7.7-8.8-7.6-8.7z M-14.2-13.9
							c0.1,0.1,0.2,0,0.2-0.1s-0.1-0.3-0.2-0.4c-0.1-0.1-0.2,0-0.2,0.1S-14.3-13.9-14.2-13.9z M-8.9-6.4c-0.1-0.1-0.2,0-0.2,0.1
							S-9-6-8.9-5.9s0.2,0,0.2-0.1S-8.8-6.4-8.9-6.4z M-8.9-10.5c0.1,0.1,0.2,0,0.2-0.1s-0.1-0.3-0.2-0.4s-0.2,0-0.2,0.1
							S-9-10.6-8.9-10.5L-8.9-10.5z M-10.4-3c-0.1-0.1-0.2,0-0.2,0.1s0.1,0.3,0.2,0.4c0.1,0.1,0.2,0,0.2-0.1
							C-10.2-2.8-10.3-2.9-10.4-3z M-9.4-2.2L-9.4-2.2C-9.5-2.1-9.4-2.1-9.4-2.2l0.1,0.1C-9.3-2.2-9.3-2.2-9.4-2.2z M-6.9-1.3
							L-6.9-1.3c-0.1,0.1,0,0.1,0,0.1C-6.8-1.1-6.8-1.1-6.9-1.3C-6.8-1.2-6.8-1.2-6.9-1.3z M-11.5-5.1L-11.5-5.1
							C-11.5-5-11.5-5-11.5-5.1l0.1,0.1C-11.4-5.1-11.4-5.1-11.5-5.1z M-11.1-4.7c-0.1-0.1-0.2,0-0.2,0.1s0.1,0.3,0.2,0.3
							c0.1,0.1,0.2,0,0.2-0.1S-11-4.7-11.1-4.7z M-7.6-6.6c-0.1-0.1-0.2,0-0.2,0.1s0.1,0.3,0.2,0.3c0.1,0,0.2,0,0.2-0.1
							C-7.3-6.4-7.4-6.6-7.6-6.6z M-15-10.8c-0.1-0.1-0.2,0-0.2,0.1s0.1,0.3,0.2,0.3c0.1,0.1,0.2,0,0.2-0.1
							C-14.8-10.6-14.9-10.7-15-10.8z M-10.1-7.8c-0.1-0.1-0.2,0-0.2,0.1s0.1,0.3,0.2,0.3c0.1,0.1,0.2,0,0.2-0.1S-10-7.7-10.1-7.8z
							 M-14.1-9.5C-14.2-9.5-14.2-9.5-14.1-9.5C-14.2-9.5-14.1-9.4-14.1-9.5C-14.1-9.4-14.1-9.4-14.1-9.5L-14.1-9.5z M-10.6-6.6
							C-10.7-6.6-10.7-6.6-10.6-6.6C-10.6-6.5-10.6-6.5-10.6-6.6C-10.6-6.5-10.6-6.5-10.6-6.6C-10.6-6.5-10.6-6.6-10.6-6.6z
							 M-12.5-8.2c-0.1,0-0.2,0-0.2,0.2s0.1,0.3,0.2,0.4c0.1,0.1,0.2,0,0.2-0.1S-12.3-8.1-12.5-8.2z M-14.2-11.6
							c-0.2-0.1-0.5,0-0.5,0.2s0.2,0.6,0.5,0.7c0.2,0.1,0.5,0,0.5-0.2C-13.7-11.2-14-11.5-14.2-11.6z M-10.8-12.2
							c-0.1-0.1-0.2,0-0.2,0.1s0.1,0.3,0.2,0.3c0.1,0.1,0.2,0,0.2-0.1S-10.7-12.1-10.8-12.2z M-11.3-8.9c-0.1,0-0.1,0-0.1,0.1
							s0.1,0.2,0.1,0.2s0.1,0,0.1-0.1C-11.1-8.7-11.2-8.8-11.3-8.9z M-12.9-9L-12.9-9c0,0.1,0,0.1,0,0.1S-12.9-8.9-12.9-9
							C-12.9-8.9-12.9-9-12.9-9z M-12.8-12.5L-12.8-12.5C-12.8-12.4-12.8-12.4-12.8-12.5C-12.8-12.4-12.7-12.4-12.8-12.5
							C-12.7-12.5-12.8-12.5-12.8-12.5z M-15.9-8.4c-0.1-0.1-0.2,0-0.2,0.1c0,0.1,0.1,0.3,0.2,0.3c0.1,0.1,0.2,0,0.2-0.1
							C-15.7-8.2-15.8-8.3-15.9-8.4z M-16.3-6.2L-16.3-6.2C-16.3-6.1-16.3-6.1-16.3-6.2C-16.2-6.1-16.2-6.1-16.3-6.2
							C-16.2-6.2-16.3-6.2-16.3-6.2z M-14.1-5.4c-0.1,0-0.2,0-0.2,0.2s0.1,0.3,0.2,0.4c0.1,0.1,0.2,0,0.2-0.1S-13.9-5.3-14.1-5.4z
							 M-13.7-7C-13.8-7-13.8-7-13.7-7c-0.1,0.2,0,0.3,0,0.3s0.2,0,0.2-0.1S-13.6-7-13.7-7z M-15.3-7.2C-15.4-7.2-15.4-7.2-15.3-7.2
							C-15.3-7.1-15.3-7.1-15.3-7.2C-15.3-7.1-15.3-7.1-15.3-7.2C-15.3-7.1-15.3-7.1-15.3-7.2z M-11.3-10.6c-0.1-0.1-0.2,0-0.2,0.1
							s0.1,0.3,0.2,0.3c0.1,0.1,0.2,0,0.2-0.1C-11-10.5-11.1-10.6-11.3-10.6z M-8.4-8.6c0-0.1-0.1-0.2-0.2-0.2s-0.2,0-0.2,0.1
							s0.1,0.2,0.2,0.2C-8.5-8.4-8.4-8.4-8.4-8.6z M-7.7-2.7c0.1,0,0.1,0,0.1-0.1S-7.7-3-7.7-3s-0.1,0-0.1,0.1
							C-7.8-2.8-7.7-2.7-7.7-2.7z M-6.1-1.7c0-0.1-0.1-0.3-0.2-0.4c-0.1-0.1-0.2,0-0.2,0.1c0,0.1,0.1,0.3,0.2,0.4
							C-6.2-1.5-6.1-1.6-6.1-1.7z M-6.2-8.4c-0.1,0-0.2,0-0.2,0.1s0.1,0.2,0.2,0.2c0.1,0,0.2,0,0.2-0.1C-6.1-8.2-6.1-8.4-6.2-8.4z
							 M-15.9-14.8c-0.1,0-0.2,0-0.2,0.1s0.1,0.2,0.2,0.2c0.1,0,0.2,0,0.2-0.1C-15.7-14.7-15.8-14.8-15.9-14.8z M-6.9-4.9
							C-7-5-7.1-4.9-7.1-4.8S-7-4.5-6.9-4.4s0.2,0,0.2-0.1C-6.7-4.6-6.8-4.8-6.9-4.9z M-9.3-3.3c-0.1,0-0.1,0-0.1,0.1S-9.3-3-9.3-3
							s0.1,0,0.1-0.1S-9.2-3.2-9.3-3.3z M-11.8-6.4C-11.9-6.4-11.9-6.4-11.8-6.4c-0.1,0.2-0.1,0.2,0,0.3c0.1,0.1,0.1,0,0.1-0.1
							S-11.8-6.4-11.8-6.4z M-10.1-5.4c-0.2-0.1-0.5,0-0.5,0.2s0.2,0.6,0.5,0.7c0.2,0.1,0.5,0,0.5-0.2C-9.6-5-9.8-5.3-10.1-5.4z
							 M-15.9-13L-15.9-13C-15.9-13-15.9-12.9-15.9-13C-15.9-12.9-15.9-12.9-15.9-13L-15.9-13z"/>
						<path class="st5" d="M-16.7-16.3l11.2,5.6V0.4l-11.2-5.6V-16.3z"/>
						<g class="st2">
							<ellipse class="st3" cx="-7.6" cy="-15" rx="0.7" ry="0.4"/>
							<ellipse class="st3" cx="-2" cy="-17.7" rx="0.5" ry="0.2"/>
							<ellipse class="st3" cx="-11.9" cy="-16.2" rx="0.4" ry="0.2"/>
							<ellipse class="st3" cx="-3" cy="-14.5" rx="0.4" ry="0.2"/>
							<ellipse class="st3" cx="-6.8" cy="-12.8" rx="0.2" ry="0.1"/>
							<path class="st3" d="M-4.6-15.2c0.1,0,0.1,0,0.1,0S-4.5-15.2-4.6-15.2s-0.1,0-0.1,0S-4.6-15.2-4.6-15.2z"/>
							<path class="st3" d="M0.5-17.8c0.1,0,0.1,0,0.1,0S0.6-17.8,0.5-17.8s-0.1,0-0.1,0S0.5-17.8,0.5-17.8z"/>
							<path class="st3" d="M-1.6-16.2c0.1,0,0.1,0,0.1,0S-1.5-16.2-1.6-16.2s-0.1,0-0.1,0S-1.6-16.2-1.6-16.2z"/>
							<path class="st3" d="M-4.2-12.2c0.1,0,0.1,0,0.1,0S-4.1-12.2-4.2-12.2s-0.1,0-0.1,0S-4.2-12.2-4.2-12.2z"/>
							<path class="st3" d="M-8.4-18.6c0.1,0,0.1,0,0.1,0S-8.3-18.6-8.4-18.6s-0.1,0-0.1,0S-8.4-18.6-8.4-18.6z"/>
							<path class="st3" d="M-14.4-16.2C-14.3-16.2-14.3-16.2-14.4-16.2C-14.3-16.2-14.3-16.2-14.4-16.2c-0.1,0-0.1,0-0.1,0
								S-14.4-16.2-14.4-16.2z"/>
							<ellipse class="st3" cx="-4.2" cy="-17.2" rx="0.2" ry="0.1"/>
							<ellipse class="st3" cx="2.1" cy="-16.3" rx="0.2" ry="0.1"/>
							<ellipse class="st3" cx="-0.3" cy="-14.9" rx="0.2" ry="0.1"/>
							<ellipse class="st3" cx="-4" cy="-19.9" rx="0.2" ry="0.1"/>
							<ellipse class="st3" cx="-11.3" cy="-18.1" rx="0.2" ry="0.1"/>
							<ellipse class="st3" cx="-8.2" cy="-17.1" rx="0.2" ry="0.1"/>
							<ellipse class="st3" cx="-9.6" cy="-16.1" rx="0.2" ry="0.1"/>
							<ellipse class="st3" cx="-9.6" cy="-14.1" rx="0.2" ry="0.1"/>
							<ellipse class="st3" cx="-6.9" cy="-18.9" rx="0.4" ry="0.2"/>
						</g>
						<path class="st6" d="M5.6-16.3v11.1L-5.6,0.4v-11.2L5.6-16.3z"/>
					</g>
				</g>
				<g transform="translate(32,0)scale(2)">
					<g>
						<path class="st7" d="M-17.5-7.8c-0.7,1.2-1.5,1.4-3.1,2.2c-2,1.1-1.6,2.7-1.2,3.6c-0.4-0.4-0.8-0.9-1-1.4
							c-0.4-1,0.3-1.7,0.8-2.4c0.4-0.6,0.7-1.1,0.8-1.8c0.1-0.1,1-0.5,0.9-1.3c0-1-0.9-2.1-1.9-2.6c0.1,0.7-0.1,1.1-0.5,1.9
							c-0.4,1.1,0.4,1.7,0.9,1.9l0,0c0,0.8-0.6,1.5-1.1,2.3c0.2-0.8,0.4-2-1.1-2.8c-1.2-0.6-1.8-0.7-2.4-1.6
							c-0.6,1.4-0.5,3.6,0.5,4.7c0.8,0.9,2.1,0.6,2.4,0.5c-0.2,0.4-0.3,0.7-0.3,1.2c0.2,1.2,1.6,1.7,2,2.8c0,0.1,0.2,0.2,0.3,0.2
							l0,0c0.3,0,0.5-0.3,0.4-0.6v-0.1c0.5,0.1,2,0.4,3-0.7C-16.8-3.2-16.7-6-17.5-7.8z M-21.6-10.7c0,0,0.4,0.6,0.5,1.9
							c0,0.7,0,1.1,0,1.2c-0.1,0-0.3,0-0.4-0.1c0,0,0,0,0-0.1C-21.2-9.3-21.6-10.7-21.6-10.7z M-23.4-4.7c-0.2-0.1-0.8-0.5-1.6-1.6
							c-1.1-1.5-1.1-2.2-1.1-2.2s0.9,1.9,3,3.3l0,0c0,0.1-0.1,0.1-0.1,0.2C-23.3-4.9-23.3-4.8-23.4-4.7z M-19.7-2.6
							C-20.2-2-21-1.4-21.2-1.2c-0.1-0.2-0.3-0.4-0.5-0.7l0,0c2.6-1.8,3.7-4.3,3.7-4.3S-18.2-4.4-19.7-2.6z"/>
					</g>
				</g>
			</g>
		</g>
	</g>
</g>
<rect class="st0" width="111.7" height="111.7"/>
</svg>
