<?xml version="1.0" encoding="utf-8"?>
<!-- Generator: Adobe Illustrator 24.0.1, SVG Export Plug-In . SVG Version: 6.00 Build 0)  -->
<svg version="1.1" id="Ebene_1" xmlns="http://www.w3.org/2000/svg" xmlns:xlink="http://www.w3.org/1999/xlink" x="0px" y="0px"
	 viewBox="0 0 225 111.96" style="enable-background:new 0 0 225 111.96;" xml:space="preserve">
<style type="text/css">
	.st0{opacity:0.76;fill:#F9EBCB;}
	.st1{fill:#835113;}
	.st2{opacity:0.3;}
	.st3{fill:#020203;}
	.st4{opacity:0.3;fill:#020203;enable-background:new    ;}
	.st5{opacity:0.11;fill:#020203;enable-background:new    ;}
	.st6{opacity:0.29;fill:#020203;enable-background:new    ;}
	.st7{fill:#9AC43B;}
</style>
<rect id="chart-background-color" x="-1.61" y="-2.48" class="st0" width="228.25" height="116.04"/>
<g id="chart-container">
	<g id="i251" transform="translate(72,50)scale(1.4375)">
		<g>
			<g>
				<g transform="translate(0,32)scale(2)">
					<g>
						<path class="st1" d="M13.93-21.71L2.77-16.13v11.17l11.17,5.58L25.1-4.96v-11.17L13.93-21.71z"/>
						<g class="st2">
							<path class="st3" d="M18.96-3.7c-0.1,0.07-0.21,0.21-0.21,0.31c0,0.1,0.1,0.17,0.21,0.1c0.1-0.07,0.21-0.21,0.21-0.31
								C19.17-3.7,19.06-3.77,18.96-3.7z"/>
							<path class="st3" d="M17.14-3.08c0.14-0.07,0.24-0.24,0.24-0.38s-0.1-0.21-0.24-0.14C17-3.53,16.9-3.36,16.9-3.22
								S17-3.01,17.14-3.08z"/>
							<path class="st3" d="M18.36-4.93c0.1-0.03,0.17-0.17,0.17-0.24c0-0.1-0.07-0.14-0.17-0.07c-0.1,0.03-0.17,0.17-0.17,0.24
								C18.19-4.93,18.26-4.89,18.36-4.93z"/>
							<path class="st3" d="M21.12-11.21c0-0.14-0.1-0.21-0.24-0.14c-0.14,0.07-0.24,0.24-0.24,0.38s0.1,0.21,0.24,0.14
								C21.01-10.89,21.12-11.07,21.12-11.21z"/>
							<path class="st3" d="M21.71-8.83c0-0.24-0.21-0.35-0.45-0.24c-0.24,0.14-0.45,0.42-0.45,0.7c0,0.24,0.21,0.35,0.45,0.24
								C21.5-8.28,21.71-8.59,21.71-8.83z"/>
							<path class="st3" d="M24.36-5.9c0-0.24-0.21-0.35-0.45-0.24c-0.24,0.14-0.45,0.42-0.45,0.7c0,0.24,0.21,0.35,0.45,0.24
								C24.16-5.34,24.36-5.62,24.36-5.9z"/>
							<path class="st3" d="M17.04-5.34c0-0.03-0.03-0.03-0.03-0.03c-0.03,0-0.03,0.03-0.03,0.07S17-5.27,17-5.27
								S17.04-5.31,17.04-5.34z"/>
							<path class="st3" d="M14.87-7.61c0-0.03-0.03-0.03-0.03-0.03c-0.03,0-0.03,0.03-0.03,0.07s0.03,0.03,0.03,0.03
								C14.84-7.58,14.87-7.61,14.87-7.61z"/>
							<path class="st3" d="M15.33-1.75c0-0.03-0.03-0.03-0.03-0.03c-0.03,0-0.03,0.03-0.03,0.07c0,0.03,0.03,0.03,0.03,0.03
								C15.33-1.68,15.33-1.72,15.33-1.75z"/>
							<path class="st3" d="M23.32-10.02c-0.07,0.03-0.14,0.1-0.14,0.17c0,0.07,0.07,0.1,0.14,0.07s0.14-0.1,0.14-0.17
								C23.46-10.02,23.39-10.06,23.32-10.02z"/>
							<path class="st3" d="M22.65-5.83c-0.07,0.03-0.14,0.1-0.14,0.17s0.07,0.1,0.14,0.07s0.14-0.1,0.14-0.17
								C22.76-5.83,22.72-5.87,22.65-5.83z"/>
							<path class="st3" d="M24.33-12.25c-0.1,0.07-0.21,0.21-0.21,0.31c0,0.1,0.1,0.17,0.21,0.1c0.1-0.07,0.21-0.21,0.21-0.31
								C24.54-12.25,24.47-12.29,24.33-12.25z"/>
							<path class="st3" d="M19.62-10.33c0,0.03,0.03,0.03,0.03,0.03c0.03,0,0.03-0.03,0.03-0.07s-0.03-0.03-0.03-0.03
								C19.62-10.37,19.62-10.33,19.62-10.33z"/>
							<path class="st3" d="M17.04-10.16c0.14-0.07,0.24-0.24,0.24-0.38s-0.1-0.21-0.24-0.14c-0.14,0.07-0.24,0.24-0.24,0.38
								C16.79-10.13,16.9-10.09,17.04-10.16z"/>
							<path class="st3" d="M16.69-7.75c0.14-0.07,0.24-0.24,0.24-0.38c0-0.14-0.1-0.21-0.24-0.14c-0.14,0.07-0.24,0.24-0.24,0.38
								C16.44-7.72,16.58-7.68,16.69-7.75z"/>
							<path class="st3" d="M17.11-6.46c-0.14,0.07-0.24,0.24-0.24,0.38s0.1,0.21,0.24,0.14c0.14-0.07,0.24-0.24,0.24-0.38
								S17.25-6.53,17.11-6.46z"/>
							<path class="st3" d="M14.56-9.53c-0.14,0.07-0.24,0.24-0.24,0.38c0,0.14,0.1,0.21,0.24,0.14s0.24-0.24,0.24-0.38
								C14.8-9.53,14.7-9.6,14.56-9.53z"/>
							<path class="st3" d="M24.54-7.47c0-0.1-0.1-0.17-0.21-0.1c-0.1,0.07-0.21,0.21-0.21,0.31s0.1,0.17,0.21,0.1
								C24.47-7.23,24.54-7.37,24.54-7.47z"/>
							<path class="st3" d="M21.4-6.5c0-0.1-0.1-0.17-0.21-0.1c-0.1,0.07-0.21,0.21-0.21,0.31c0,0.1,0.1,0.17,0.21,0.1
								C21.29-6.25,21.4-6.39,21.4-6.5z"/>
							<path class="st3" d="M15.54-5.24c0-0.1-0.1-0.17-0.21-0.1c-0.1,0.07-0.21,0.21-0.21,0.31s0.1,0.17,0.21,0.1
								C15.43-5,15.54-5.14,15.54-5.24z"/>
							<path class="st3" d="M22.55-8.45c0.14-0.07,0.24-0.24,0.24-0.38c0-0.14-0.1-0.21-0.24-0.14c-0.14,0.07-0.24,0.24-0.24,0.38
								C22.31-8.45,22.41-8.38,22.55-8.45z"/>
							<path class="st3" d="M16.69-1.82c0.14-0.07,0.24-0.24,0.24-0.38s-0.1-0.21-0.24-0.14c-0.14,0.07-0.24,0.24-0.24,0.38
								C16.44-1.79,16.58-1.75,16.69-1.82z"/>
							<path class="st3" d="M22.1-4.26c-0.07,0.03-0.14,0.1-0.14,0.17c0,0.07,0.07,0.1,0.14,0.07c0.07-0.03,0.14-0.1,0.14-0.17
								C22.24-4.26,22.17-4.3,22.1-4.26z"/>
							<path class="st3" d="M20.74-5.27c-0.07,0.03-0.14,0.1-0.14,0.17c0,0.07,0.07,0.1,0.14,0.07s0.14-0.1,0.14-0.17
								C20.88-5.27,20.81-5.31,20.74-5.27z"/>
							<path class="st3" d="M19.51-8.28c-0.1,0.07-0.21,0.21-0.21,0.31c0,0.1,0.1,0.17,0.21,0.1s0.21-0.21,0.21-0.31
								S19.65-8.35,19.51-8.28z"/>
							<path class="st3" d="M22.1-12.74c0,0.1,0.1,0.17,0.21,0.1c0.1-0.07,0.21-0.21,0.21-0.31c0-0.1-0.1-0.17-0.21-0.1
								C22.2-12.99,22.1-12.85,22.1-12.74z"/>
							<path class="st3" d="M19.72-7.02c0,0.1,0.1,0.17,0.21,0.1s0.21-0.21,0.21-0.31c0-0.1-0.1-0.17-0.21-0.1
								C19.83-7.3,19.72-7.16,19.72-7.02z"/>
							<path class="st3" d="M15.57-2.69c0.1-0.03,0.17-0.17,0.17-0.24c0-0.1-0.07-0.14-0.17-0.07c-0.1,0.03-0.17,0.17-0.17,0.24
								S15.47-2.66,15.57-2.69z"/>
							<path class="st3" d="M20.04-12.71c0-0.14-0.1-0.21-0.24-0.14c-0.14,0.07-0.24,0.24-0.24,0.38s0.1,0.21,0.24,0.14
								C19.9-12.39,20.04-12.57,20.04-12.71z"/>
							<path class="st3" d="M22.41-11.49c-0.03,0-0.07,0.07-0.07,0.07c0,0.03,0.03,0.03,0.07,0.03s0.07-0.07,0.07-0.07
								C22.48-11.49,22.45-11.52,22.41-11.49z"/>
							<path class="st3" d="M23.74-14.28c-0.03,0-0.07,0.07-0.07,0.07s0.03,0.03,0.07,0.03s0.07-0.07,0.07-0.07
								C23.81-14.31,23.77-14.31,23.74-14.28z"/>
							<path class="st3" d="M17.25-3.95c-0.03,0-0.07,0.07-0.07,0.07c0,0.03,0.03,0.03,0.07,0.03s0.07-0.07,0.07-0.07
								C17.28-3.95,17.28-3.98,17.25-3.95z"/>
							<path class="st3" d="M14.56-6.22c-0.03,0-0.07,0.07-0.07,0.07c0,0.03,0.03,0.03,0.07,0.03c0.03,0,0.07-0.07,0.07-0.07
								C14.63-6.22,14.59-6.25,14.56-6.22z"/>
							<path class="st3" d="M21.78-9.78c0-0.03-0.03-0.07-0.07-0.03c-0.03,0.03-0.07,0.07-0.07,0.1s0.03,0.07,0.07,0.03
								C21.75-9.71,21.78-9.74,21.78-9.78z"/>
							<path class="st3" d="M22.48-6.88c0-0.03-0.03-0.07-0.07-0.03s-0.07,0.07-0.07,0.1s0.03,0.07,0.07,0.03S22.48-6.85,22.48-6.88
								z"/>
							<path class="st3" d="M24.64-9.67c0-0.03-0.03-0.07-0.07-0.03c-0.03,0.03-0.07,0.07-0.07,0.1s0.03,0.07,0.07,0.03
								C24.61-9.6,24.64-9.64,24.64-9.67z"/>
							<path class="st3" d="M18.26-8.03c0-0.03-0.03-0.07-0.07-0.03c-0.03,0.03-0.07,0.07-0.07,0.1s0.03,0.07,0.07,0.03
								C18.22-7.93,18.26-8,18.26-8.03z"/>
							<path class="st3" d="M18.36-10.4c-0.1,0.03-0.17,0.17-0.17,0.24c0,0.1,0.07,0.14,0.17,0.07c0.1-0.03,0.17-0.17,0.17-0.24
								C18.54-10.4,18.43-10.44,18.36-10.4z"/>
						</g>
						<path class="st4" d="M11.91-8.52c0.14,0.07,0.24,0,0.24-0.14s-0.1-0.31-0.24-0.38s-0.24,0-0.24,0.14S11.77-8.59,11.91-8.52z
							 M5.31-13.65c0.14,0.07,0.24,0,0.24-0.14c0-0.14-0.1-0.31-0.24-0.38c-0.14-0.07-0.24,0-0.24,0.14S5.17-13.72,5.31-13.65z
							 M10.55-6.22c-0.14-0.07-0.24,0-0.24,0.14s0.1,0.31,0.24,0.38s0.24,0,0.24-0.14S10.69-6.15,10.55-6.22z M10.65-10.3
							c0.14,0.07,0.24,0,0.24-0.14c0-0.14-0.1-0.31-0.24-0.38s-0.24,0-0.24,0.14S10.51-10.37,10.65-10.3L10.65-10.3z M9.08-2.8
							c-0.14-0.07-0.24,0-0.24,0.14c0,0.14,0.1,0.31,0.24,0.38c0.14,0.07,0.24,0,0.24-0.14C9.33-2.55,9.22-2.69,9.08-2.8z
							 M10.13-2.03c-0.03,0-0.07,0-0.07,0.03s0.03,0.07,0.07,0.1c0.03,0,0.07,0,0.07-0.03C10.2-1.96,10.16-2.03,10.13-2.03z
							 M12.64-1.05c-0.03,0-0.07,0-0.07,0.03s0.03,0.07,0.07,0.1c0.03,0,0.07,0,0.07-0.03S12.68-1.02,12.64-1.05z M8.03-4.89
							c-0.03,0-0.07,0-0.07,0.03S8-4.79,8.03-4.75c0.03,0,0.07,0,0.07-0.03C8.07-4.86,8.07-4.89,8.03-4.89z M8.42-4.54
							c-0.1-0.07-0.21,0-0.21,0.1s0.1,0.28,0.21,0.31c0.1,0.07,0.21,0,0.21-0.1S8.52-4.47,8.42-4.54z M11.94-6.43
							c-0.1-0.07-0.21,0-0.21,0.1s0.1,0.28,0.21,0.31c0.1,0.07,0.21,0,0.21-0.1C12.19-6.22,12.08-6.36,11.94-6.43z M4.48-10.61
							c-0.1-0.07-0.21,0-0.21,0.1c0,0.1,0.1,0.28,0.21,0.31c0.1,0.07,0.21,0,0.21-0.1C4.68-10.4,4.61-10.54,4.48-10.61z M9.4-7.58
							c-0.1-0.07-0.21,0-0.21,0.1s0.1,0.28,0.21,0.31c0.1,0.07,0.21,0,0.21-0.1S9.5-7.51,9.4-7.58z M5.38-9.32
							c-0.03,0-0.03,0-0.03,0.03s0.03,0.07,0.03,0.07c0.03,0,0.03,0,0.03-0.03C5.45-9.29,5.42-9.32,5.38-9.32z M8.87-6.39
							c-0.03,0-0.03,0-0.03,0.03s0.03,0.07,0.03,0.07c0.03,0,0.03,0,0.03-0.03C8.91-6.32,8.87-6.36,8.87-6.39z M7.02-7.96
							c-0.14-0.07-0.24,0-0.24,0.14s0.1,0.31,0.24,0.38s0.24,0,0.24-0.14S7.16-7.89,7.02-7.96z M5.28-11.42
							c-0.24-0.14-0.49-0.03-0.49,0.24s0.21,0.59,0.49,0.7c0.24,0.14,0.49,0.03,0.49-0.24C5.77-10.96,5.52-11.28,5.28-11.42z
							 M8.73-12.01c-0.1-0.07-0.21,0-0.21,0.1c0,0.1,0.1,0.28,0.21,0.31c0.1,0.07,0.21,0,0.21-0.1C8.94-11.8,8.84-11.94,8.73-12.01z
							 M8.24-8.66c-0.07-0.03-0.14,0-0.14,0.07c0,0.07,0.07,0.17,0.14,0.21s0.14,0,0.14-0.07C8.38-8.52,8.31-8.62,8.24-8.66z
							 M6.6-8.8c-0.03,0-0.03,0-0.03,0.03S6.6-8.69,6.6-8.69c0.03,0,0.03,0,0.03-0.03C6.64-8.73,6.64-8.76,6.6-8.8z M6.74-12.29
							c-0.03,0-0.03,0-0.03,0.03s0.03,0.07,0.03,0.07s0.03,0,0.03-0.03S6.74-12.29,6.74-12.29z M3.64-8.17
							c-0.1-0.07-0.21,0-0.21,0.1c0,0.1,0.1,0.28,0.21,0.31c0.1,0.07,0.21,0,0.21-0.1S3.74-8.1,3.64-8.17z M3.25-6.01
							c-0.03,0-0.03,0-0.03,0.03S3.25-5.9,3.25-5.9c0.03,0,0.03,0,0.03-0.03C3.29-5.97,3.25-6.01,3.25-6.01z M5.42-5.17
							c-0.14-0.07-0.24,0-0.24,0.14c0,0.14,0.1,0.31,0.24,0.38c0.14,0.07,0.24,0,0.24-0.14C5.66-4.93,5.56-5.1,5.42-5.17z
							 M5.84-6.81c-0.07-0.03-0.14,0-0.14,0.07s0.07,0.17,0.14,0.21s0.14,0,0.14-0.07S5.91-6.78,5.84-6.81z M4.16-6.95
							c-0.03,0-0.03,0-0.03,0.03s0.03,0.07,0.03,0.07c0.03,0,0.03,0,0.03-0.03C4.23-6.91,4.2-6.91,4.16-6.95z M8.24-10.44
							c-0.1-0.07-0.21,0-0.21,0.1c0,0.1,0.1,0.28,0.21,0.31c0.1,0.07,0.21,0,0.21-0.1C8.49-10.26,8.38-10.4,8.24-10.44z M11.1-8.35
							c0-0.1-0.07-0.21-0.17-0.24c-0.1-0.03-0.17,0-0.17,0.07c0,0.1,0.07,0.21,0.17,0.24C11.04-8.21,11.1-8.24,11.1-8.35z
							 M11.84-2.45c0.07,0.03,0.14,0,0.14-0.07c0-0.07-0.07-0.17-0.14-0.21s-0.14,0-0.14,0.07C11.73-2.59,11.77-2.48,11.84-2.45z
							 M13.44-1.54c0-0.14-0.1-0.31-0.24-0.38c-0.14-0.07-0.24,0-0.24,0.14s0.1,0.31,0.24,0.38C13.3-1.33,13.44-1.4,13.44-1.54z
							 M13.27-8.21c-0.1-0.03-0.17,0-0.17,0.07c0,0.07,0.07,0.21,0.17,0.24c0.1,0.03,0.17,0,0.17-0.07
							C13.44-8.03,13.37-8.17,13.27-8.21z M3.6-14.63c-0.1-0.03-0.17,0-0.17,0.07c0,0.07,0.07,0.21,0.17,0.24
							c0.1,0.03,0.17,0,0.17-0.07C3.78-14.45,3.71-14.56,3.6-14.63z M12.57-4.65c-0.14-0.07-0.24,0-0.24,0.14
							c0,0.14,0.1,0.31,0.24,0.38s0.24,0,0.24-0.14C12.81-4.4,12.71-4.58,12.57-4.65z M10.23-3.08c-0.07-0.03-0.14,0-0.14,0.07
							s0.07,0.17,0.14,0.21s0.14,0,0.14-0.07S10.3-3.04,10.23-3.08z M7.65-6.22c-0.07-0.03-0.14,0-0.14,0.07s0.07,0.17,0.14,0.21
							s0.14,0,0.14-0.07C7.76-6.08,7.72-6.18,7.65-6.22z M9.43-5.21C9.19-5.34,8.94-5.24,8.94-4.96c0,0.24,0.21,0.59,0.49,0.7
							c0.24,0.14,0.49,0.03,0.49-0.24C9.88-4.75,9.67-5.07,9.43-5.21z M3.6-12.81c-0.03,0-0.03,0-0.03,0.03
							c0,0.03,0.03,0.07,0.03,0.07c0.03,0,0.03,0,0.03-0.03S3.64-12.81,3.6-12.81z"/>
						<path class="st5" d="M2.77-16.13l11.17,5.58V0.62L2.77-4.96V-16.13z"/>
						<g class="st2">
							<ellipse class="st3" cx="11.91" cy="-14.84" rx="0.7" ry="0.35"/>
							<ellipse class="st3" cx="17.49" cy="-17.45" rx="0.45" ry="0.24"/>
							<ellipse class="st3" cx="7.55" cy="-15.99" rx="0.45" ry="0.24"/>
							<ellipse class="st3" cx="16.51" cy="-14.31" rx="0.35" ry="0.17"/>
							<ellipse class="st3" cx="12.71" cy="-12.6" rx="0.21" ry="0.1"/>
							<ellipse class="st3" cx="14.91" cy="-15.01" rx="0.07" ry="0.03"/>
							<ellipse class="st3" cx="20.04" cy="-17.63" rx="0.07" ry="0.03"/>
							<ellipse class="st3" cx="17.94" cy="-15.95" rx="0.07" ry="0.03"/>
							<ellipse class="st3" cx="15.33" cy="-12.04" rx="0.07" ry="0.03"/>
							<ellipse class="st3" cx="11.07" cy="-18.43" rx="0.07" ry="0.03"/>
							<ellipse class="st3" cx="5.1" cy="-15.95" rx="0.07" ry="0.03"/>
							<ellipse class="st3" cx="15.33" cy="-16.96" rx="0.21" ry="0.1"/>
							<ellipse class="st3" cx="21.64" cy="-16.13" rx="0.21" ry="0.1"/>
							<ellipse class="st3" cx="19.17" cy="-14.73" rx="0.21" ry="0.1"/>
							<ellipse class="st3" cx="15.54" cy="-19.65" rx="0.21" ry="0.1"/>
							<ellipse class="st3" cx="8.24" cy="-17.94" rx="0.21" ry="0.1"/>
							<ellipse class="st3" cx="11.28" cy="-16.86" rx="0.21" ry="0.1"/>
							<ellipse class="st3" cx="9.92" cy="-15.88" rx="0.21" ry="0.1"/>
							<ellipse class="st3" cx="9.92" cy="-13.86" rx="0.21" ry="0.1"/>
							<ellipse class="st3" cx="12.61" cy="-18.71" rx="0.35" ry="0.17"/>
						</g>
						<path class="st6" d="M25.1-16.13v11.17L13.93,0.62v-11.17L25.1-16.13z"/>
					</g>
				</g>
				<g transform="translate(32,0)scale(2)">
					<g>
						<path class="st7" d="M2.05-7.63c-0.73,1.19-1.57,1.4-3.11,2.2C-3.01-4.38-2.66-2.71-2.31-1.8c-0.42-0.42-0.84-0.87-1.05-1.43
							c-0.31-0.94,0.38-1.67,0.87-2.41c0.38-0.59,0.7-1.12,0.8-1.81c0.14-0.07,0.98-0.49,0.94-1.33c-0.03-1.01-0.94-2.09-1.85-2.55
							c0.14,0.7-0.14,1.08-0.45,1.92c-0.42,1.15,0.42,1.67,0.87,1.88l0,0c-0.17,0.87-0.73,1.57-1.26,2.3
							c0.24-0.73,0.42-1.99-1.08-2.76C-5.7-8.57-6.36-8.71-6.95-9.62c-0.56,1.4-0.42,3.59,0.59,4.71c0.8,0.87,2.02,0.63,2.37,0.52
							C-4.2-4.03-4.34-3.65-4.27-3.23c0.21,1.19,1.54,1.71,1.92,2.79c0.07,0.17,0.21,0.28,0.38,0.28l0,0c0.31,0,0.49-0.31,0.38-0.59
							c0-0.03-0.03-0.07-0.03-0.1c0.45,0.1,2.02,0.42,3-0.73C2.68-3.02,2.78-5.81,2.05-7.63z M-2.14-10.46c0,0,0.42,0.63,0.45,1.85
							c0.03,0.73,0,1.08-0.03,1.19c-0.14,0-0.31-0.03-0.42-0.07c0-0.03,0-0.03,0.03-0.07C-1.72-9.13-2.14-10.46-2.14-10.46z
							 M-3.92-4.45c-0.17-0.1-0.77-0.52-1.54-1.61c-1.05-1.47-1.12-2.2-1.12-2.2s0.87,1.88,2.93,3.25l0.03,0.03
							c-0.03,0.07-0.07,0.1-0.1,0.17C-3.78-4.7-3.85-4.59-3.92-4.45z M-0.15-2.36C-0.6-1.8-1.41-1.14-1.65-0.93
							c-0.14-0.24-0.28-0.45-0.49-0.66l0.03-0.03c2.58-1.78,3.66-4.26,3.66-4.26S1.28-4.17-0.15-2.36z"/>
					</g>
				</g>
			</g>
		</g>
	</g>
</g>
</svg>
