<?xml version="1.0" encoding="utf-8"?>
<!-- Generator: Adobe Illustrator 24.0.0, SVG Export Plug-In . SVG Version: 6.00 Build 0)  -->
<svg version="1.1" id="Ebene_1" xmlns="http://www.w3.org/2000/svg" xmlns:xlink="http://www.w3.org/1999/xlink" x="0px" y="0px"
	 viewBox="0 0 225 112" style="enable-background:new 0 0 225 112;" xml:space="preserve">
<style type="text/css">
	.st0{opacity:0.76;fill:none;enable-background:new    ;}
	.st1{fill:#835113;}
	.st2{opacity:0.3;}
	.st3{fill:#020203;}
	.st4{opacity:0.3;fill:#020203;enable-background:new    ;}
	.st5{opacity:0.11;fill:#020203;enable-background:new    ;}
	.st6{opacity:0.29;fill:#020203;enable-background:new    ;}
	.st7{fill:#9AC43B;}
</style>
<rect id="chart-background-color" x="-1.6" y="-2.5" class="st0" width="228.2" height="116"/>
<g id="chart-container">
	<g id="i251" transform="translate(72,50)scale(1.4375)">
		<g>
			<g>
				<g transform="translate(0,32)scale(2)">
					<g>
						<path class="st1" d="M13.9-21.7L2.8-16.1V-5l11.2,5.6L25.1-5v-11.2L13.9-21.7z"/>
						<g class="st2">
							<path class="st3" d="M19-3.7c-0.1,0.1-0.2,0.2-0.2,0.3s0.1,0.2,0.2,0.1c0.1-0.1,0.2-0.2,0.2-0.3C19.2-3.7,19.1-3.8,19-3.7z"
								/>
							<path class="st3" d="M17.1-3.1c0.1-0.1,0.2-0.2,0.2-0.4s-0.1-0.2-0.2-0.1c-0.1,0.1-0.2,0.2-0.2,0.4S17-3,17.1-3.1z"/>
							<path class="st3" d="M18.4-4.9c0.1,0,0.2-0.2,0.2-0.2c0-0.1-0.1-0.1-0.2-0.1c-0.1,0-0.2,0.2-0.2,0.2
								C18.2-4.9,18.3-4.9,18.4-4.9z"/>
							<path class="st3" d="M21.1-11.2c0-0.1-0.1-0.2-0.2-0.1s-0.2,0.2-0.2,0.4s0.1,0.2,0.2,0.1C21-10.9,21.1-11.1,21.1-11.2z"/>
							<path class="st3" d="M21.7-8.8c0-0.2-0.2-0.4-0.5-0.2c-0.2,0.1-0.5,0.4-0.5,0.7c0,0.2,0.2,0.4,0.5,0.2
								C21.5-8.3,21.7-8.6,21.7-8.8z"/>
							<path class="st3" d="M24.4-5.9c0-0.2-0.2-0.3-0.5-0.2c-0.2,0.1-0.5,0.4-0.5,0.7c0,0.2,0.2,0.3,0.5,0.2
								C24.2-5.3,24.4-5.6,24.4-5.9z"/>
							<path class="st3" d="M17-5.3C17-5.4,17-5.4,17-5.3C17-5.4,17-5.3,17-5.3C17-5.3,17-5.3,17-5.3C17-5.3,17-5.3,17-5.3z"/>
							<path class="st3" d="M14.9-7.6C14.9-7.6,14.8-7.6,14.9-7.6C14.8-7.6,14.8-7.6,14.9-7.6C14.8-7.5,14.8-7.5,14.9-7.6
								C14.8-7.6,14.9-7.6,14.9-7.6z"/>
							<path class="st3" d="M15.3-1.8C15.3-1.8,15.3-1.8,15.3-1.8C15.3-1.8,15.3-1.8,15.3-1.8C15.3-1.7,15.3-1.7,15.3-1.8
								C15.3-1.7,15.3-1.7,15.3-1.8z"/>
							<path class="st3" d="M23.3-10c-0.1,0-0.1,0.1-0.1,0.2s0.1,0.1,0.1,0.1s0.1-0.1,0.1-0.2S23.4-10.1,23.3-10z"/>
							<path class="st3" d="M22.6-5.8c-0.1,0-0.1,0.1-0.1,0.2s0.1,0.1,0.1,0.1s0.1-0.1,0.1-0.2C22.8-5.8,22.7-5.9,22.6-5.8z"/>
							<path class="st3" d="M24.3-12.3c-0.1,0.1-0.2,0.2-0.2,0.3s0.1,0.2,0.2,0.1c0.1-0.1,0.2-0.2,0.2-0.3
								C24.5-12.3,24.5-12.3,24.3-12.3z"/>
							<path class="st3" d="M19.6-10.3C19.6-10.3,19.7-10.3,19.6-10.3C19.7-10.3,19.7-10.3,19.6-10.3C19.7-10.4,19.7-10.4,19.6-10.3
								C19.6-10.4,19.6-10.3,19.6-10.3z"/>
							<path class="st3" d="M17-10.2c0.1-0.1,0.2-0.2,0.2-0.4s-0.1-0.2-0.2-0.1s-0.2,0.2-0.2,0.4C16.8-10.1,16.9-10.1,17-10.2z"/>
							<path class="st3" d="M16.7-7.8c0.1-0.1,0.2-0.2,0.2-0.4c0-0.1-0.1-0.2-0.2-0.1S16.5-8,16.5-7.9C16.4-7.7,16.6-7.7,16.7-7.8z"
								/>
							<path class="st3" d="M17.1-6.5c-0.1,0.1-0.2,0.2-0.2,0.4s0.1,0.2,0.2,0.1s0.2-0.2,0.2-0.4S17.2-6.5,17.1-6.5z"/>
							<path class="st3" d="M14.6-9.5c-0.1,0.1-0.2,0.2-0.2,0.4s0.1,0.2,0.2,0.1s0.2-0.2,0.2-0.4S14.7-9.6,14.6-9.5z"/>
							<path class="st3" d="M24.5-7.5c0-0.1-0.1-0.2-0.2-0.1c-0.1,0.1-0.2,0.2-0.2,0.3s0.1,0.2,0.2,0.1C24.5-7.2,24.5-7.4,24.5-7.5z
								"/>
							<path class="st3" d="M21.4-6.5c0-0.1-0.1-0.2-0.2-0.1C21.1-6.5,21-6.4,21-6.3s0.1,0.2,0.2,0.1C21.3-6.3,21.4-6.4,21.4-6.5z"
								/>
							<path class="st3" d="M15.5-5.2c0-0.1-0.1-0.2-0.2-0.1c-0.1,0.1-0.2,0.2-0.2,0.3s0.1,0.2,0.2,0.1C15.4-5,15.5-5.1,15.5-5.2z"
								/>
							<path class="st3" d="M22.5-8.5c0.1-0.1,0.2-0.2,0.2-0.4S22.7-9,22.5-9s-0.2,0.2-0.2,0.4S22.4-8.4,22.5-8.5z"/>
							<path class="st3" d="M16.7-1.8c0.1-0.1,0.2-0.2,0.2-0.4s-0.1-0.2-0.2-0.1S16.5-2.1,16.5-2C16.4-1.8,16.6-1.8,16.7-1.8z"/>
							<path class="st3" d="M22.1-4.3C22-4.2,22-4.2,22-4.1S22-4,22.1-4c0.1,0,0.1-0.1,0.1-0.2S22.2-4.3,22.1-4.3z"/>
							<path class="st3" d="M20.7-5.3c-0.1,0-0.1,0.1-0.1,0.2S20.7-5,20.7-5s0.1-0.1,0.1-0.2S20.8-5.3,20.7-5.3z"/>
							<path class="st3" d="M19.5-8.3c-0.1,0.1-0.2,0.2-0.2,0.3c0,0.1,0.1,0.2,0.2,0.1s0.2-0.2,0.2-0.3S19.6-8.4,19.5-8.3z"/>
							<path class="st3" d="M22.1-12.7c0,0.1,0.1,0.2,0.2,0.1c0.1-0.1,0.2-0.2,0.2-0.3s-0.1-0.2-0.2-0.1
								C22.2-13,22.1-12.9,22.1-12.7z"/>
							<path class="st3" d="M19.7-7c0,0.1,0.1,0.2,0.2,0.1s0.2-0.2,0.2-0.3S20-7.4,19.9-7.3C19.8-7.3,19.7-7.2,19.7-7z"/>
							<path class="st3" d="M15.6-2.7c0.1,0,0.2-0.2,0.2-0.2c0-0.1-0.1-0.1-0.2-0.1c-0.1,0-0.2,0.2-0.2,0.2S15.5-2.7,15.6-2.7z"/>
							<path class="st3" d="M20-12.7c0-0.1-0.1-0.2-0.2-0.1s-0.2,0.2-0.2,0.4s0.1,0.2,0.2,0.1C19.9-12.4,20-12.6,20-12.7z"/>
							<path class="st3" d="M22.4-11.5C22.4-11.5,22.3-11.4,22.4-11.5C22.3-11.4,22.4-11.4,22.4-11.5C22.4-11.4,22.5-11.5,22.4-11.5
								C22.5-11.5,22.5-11.5,22.4-11.5z"/>
							<path class="st3" d="M23.7-14.3C23.7-14.3,23.7-14.2,23.7-14.3C23.7-14.2,23.7-14.2,23.7-14.3C23.8-14.2,23.8-14.3,23.7-14.3
								C23.8-14.3,23.8-14.3,23.7-14.3z"/>
							<path class="st3" d="M17.2-4C17.2-4,17.2-3.9,17.2-4C17.2-3.9,17.2-3.9,17.2-4C17.3-3.9,17.3-3.9,17.2-4
								C17.3-4,17.3-4,17.2-4z"/>
							<path class="st3" d="M14.6-6.2C14.5-6.2,14.5-6.2,14.6-6.2c-0.1,0.1,0,0.1,0,0.1C14.6-6.1,14.6-6.2,14.6-6.2
								C14.6-6.2,14.6-6.3,14.6-6.2z"/>
							<path class="st3" d="M21.8-9.8C21.8-9.8,21.8-9.9,21.8-9.8c-0.1,0-0.1,0-0.1,0.1s0,0.1,0.1,0C21.8-9.7,21.8-9.7,21.8-9.8z"/>
							<path class="st3" d="M22.5-6.9C22.5-6.9,22.4-7,22.5-6.9c-0.1,0-0.1,0-0.1,0.1S22.4-6.7,22.5-6.9C22.4-6.8,22.5-6.9,22.5-6.9
								z"/>
							<path class="st3" d="M24.6-9.7C24.6-9.7,24.6-9.7,24.6-9.7c-0.1,0-0.1,0-0.1,0.1s0,0.1,0.1,0C24.6-9.6,24.6-9.6,24.6-9.7z"/>
							<path class="st3" d="M18.3-8C18.3-8.1,18.2-8.1,18.3-8c-0.1,0-0.1,0-0.1,0.1S18.2-7.9,18.3-8C18.2-7.9,18.3-8,18.3-8z"/>
							<path class="st3" d="M18.4-10.4c-0.1,0-0.2,0.2-0.2,0.2c0,0.1,0.1,0.1,0.2,0.1c0.1,0,0.2-0.2,0.2-0.2
								C18.5-10.4,18.4-10.4,18.4-10.4z"/>
						</g>
						<path class="st4" d="M11.9-8.5c0.1,0.1,0.2,0,0.2-0.1S12-9,11.9-9s-0.2,0-0.2,0.1S11.8-8.6,11.9-8.5z M5.3-13.7
							c0.1,0.1,0.2,0,0.2-0.1s-0.1-0.3-0.2-0.4s-0.2,0-0.2,0.1S5.2-13.7,5.3-13.7z M10.6-6.2c-0.1-0.1-0.2,0-0.2,0.1
							s0.1,0.3,0.2,0.4s0.2,0,0.2-0.1S10.7-6.2,10.6-6.2z M10.6-10.3c0.1,0.1,0.2,0,0.2-0.1s-0.1-0.3-0.2-0.4s-0.2,0-0.2,0.1
							S10.5-10.4,10.6-10.3L10.6-10.3z M9.1-2.8c-0.1-0.1-0.2,0-0.2,0.1s0.1,0.3,0.2,0.4c0.1,0.1,0.2,0,0.2-0.1
							C9.3-2.6,9.2-2.7,9.1-2.8z M10.1-2C10.1-2,10.1-2,10.1-2c-0.1,0.1,0,0.1,0,0.1c0,0,0.1,0,0.1,0C10.2-2,10.2-2,10.1-2z
							 M12.6-1.1C12.6-1.1,12.6-1.1,12.6-1.1c-0.1,0.1,0,0.1,0,0.1C12.7-0.9,12.7-0.9,12.6-1.1C12.7-1,12.7-1,12.6-1.1z M8-4.9
							C8-4.9,8-4.9,8-4.9C8-4.8,8-4.8,8-4.8c0,0,0.1,0,0.1,0C8.1-4.9,8.1-4.9,8-4.9z M8.4-4.5c-0.1-0.1-0.2,0-0.2,0.1
							s0.1,0.3,0.2,0.3c0.1,0.1,0.2,0,0.2-0.1S8.5-4.5,8.4-4.5z M11.9-6.4c-0.1-0.1-0.2,0-0.2,0.1s0.1,0.3,0.2,0.3
							C12-6,12.1-6,12.1-6.1C12.2-6.2,12.1-6.4,11.9-6.4z M4.5-10.6c-0.1-0.1-0.2,0-0.2,0.1s0.1,0.3,0.2,0.3c0.1,0.1,0.2,0,0.2-0.1
							C4.7-10.4,4.6-10.5,4.5-10.6z M9.4-7.6c-0.1-0.1-0.2,0-0.2,0.1s0.1,0.3,0.2,0.3c0.1,0.1,0.2,0,0.2-0.1S9.5-7.5,9.4-7.6z
							 M5.4-9.3C5.3-9.3,5.3-9.3,5.4-9.3C5.3-9.3,5.4-9.2,5.4-9.3C5.4-9.2,5.4-9.2,5.4-9.3C5.4-9.3,5.4-9.3,5.4-9.3z M8.9-6.4
							C8.8-6.4,8.8-6.4,8.9-6.4c0,0.1,0,0.1,0,0.1C8.9-6.3,8.9-6.3,8.9-6.4C8.9-6.3,8.9-6.4,8.9-6.4z M7-8C6.9-8,6.8-8,6.8-7.8
							S6.9-7.5,7-7.4s0.2,0,0.2-0.1S7.2-7.9,7-8z M5.3-11.4c-0.2-0.1-0.5,0-0.5,0.2s0.2,0.6,0.5,0.7c0.2,0.1,0.5,0,0.5-0.2
							C5.8-11,5.5-11.3,5.3-11.4z M8.7-12c-0.1-0.1-0.2,0-0.2,0.1s0.1,0.3,0.2,0.3c0.1,0.1,0.2,0,0.2-0.1S8.8-11.9,8.7-12z M8.2-8.7
							c-0.1,0-0.1,0-0.1,0.1s0.1,0.2,0.1,0.2s0.1,0,0.1-0.1C8.4-8.5,8.3-8.6,8.2-8.7z M6.6-8.8C6.6-8.8,6.6-8.8,6.6-8.8
							c0,0.1,0,0.1,0,0.1C6.6-8.7,6.6-8.7,6.6-8.8C6.6-8.7,6.6-8.8,6.6-8.8z M6.7-12.3C6.7-12.3,6.7-12.3,6.7-12.3
							C6.7-12.2,6.7-12.2,6.7-12.3C6.7-12.2,6.8-12.2,6.7-12.3C6.8-12.3,6.7-12.3,6.7-12.3z M3.6-8.2c-0.1-0.1-0.2,0-0.2,0.1
							c0,0.1,0.1,0.3,0.2,0.3c0.1,0.1,0.2,0,0.2-0.1S3.7-8.1,3.6-8.2z M3.2-6C3.2-6,3.2-6,3.2-6c0,0.1,0,0.1,0,0.1
							C3.3-5.9,3.3-5.9,3.2-6C3.3-6,3.2-6,3.2-6z M5.4-5.2C5.3-5.2,5.2-5.2,5.2-5s0.1,0.3,0.2,0.4s0.2,0,0.2-0.1S5.6-5.1,5.4-5.2z
							 M5.8-6.8c-0.1,0-0.1,0-0.1,0.1s0.1,0.2,0.1,0.2S6-6.5,6-6.6S5.9-6.8,5.8-6.8z M4.2-7C4.1-7,4.1-7,4.2-7c0,0.1,0,0.1,0,0.1
							C4.2-6.9,4.2-6.9,4.2-7C4.2-6.9,4.2-6.9,4.2-7z M8.2-10.4c-0.1-0.1-0.2,0-0.2,0.1s0.1,0.3,0.2,0.3c0.1,0.1,0.2,0,0.2-0.1
							C8.5-10.3,8.4-10.4,8.2-10.4z M11.1-8.4c0-0.1-0.1-0.2-0.2-0.2s-0.2,0-0.2,0.1c0,0.1,0.1,0.2,0.2,0.2
							C11-8.2,11.1-8.2,11.1-8.4z M11.8-2.5c0.1,0,0.1,0,0.1-0.1s-0.1-0.2-0.1-0.2s-0.1,0-0.1,0.1C11.7-2.6,11.8-2.5,11.8-2.5z
							 M13.4-1.5c0-0.1-0.1-0.3-0.2-0.4C13.1-2,13-1.9,13-1.8s0.1,0.3,0.2,0.4C13.3-1.3,13.4-1.4,13.4-1.5z M13.3-8.2
							c-0.1,0-0.2,0-0.2,0.1s0.1,0.2,0.2,0.2c0.1,0,0.2,0,0.2-0.1C13.4-8,13.4-8.2,13.3-8.2z M3.6-14.6c-0.1,0-0.2,0-0.2,0.1
							s0.1,0.2,0.2,0.2c0.1,0,0.2,0,0.2-0.1C3.8-14.5,3.7-14.6,3.6-14.6z M12.6-4.7c-0.1-0.1-0.2,0-0.2,0.1s0.1,0.3,0.2,0.4
							s0.2,0,0.2-0.1C12.8-4.4,12.7-4.6,12.6-4.7z M10.2-3.1c-0.1,0-0.1,0-0.1,0.1s0.1,0.2,0.1,0.2s0.1,0,0.1-0.1S10.3-3,10.2-3.1z
							 M7.7-6.2c-0.1,0-0.1,0-0.1,0.1S7.6-6,7.7-5.9s0.1,0,0.1-0.1C7.8-6.1,7.7-6.2,7.7-6.2z M9.4-5.2C9.2-5.3,8.9-5.2,8.9-5
							c0,0.2,0.2,0.6,0.5,0.7c0.2,0.1,0.5,0,0.5-0.2C9.9-4.8,9.7-5.1,9.4-5.2z M3.6-12.8C3.6-12.8,3.6-12.8,3.6-12.8
							C3.6-12.8,3.6-12.7,3.6-12.8C3.6-12.7,3.6-12.7,3.6-12.8C3.6-12.8,3.6-12.8,3.6-12.8z"/>
						<path class="st5" d="M2.8-16.1l11.2,5.6V0.6L2.8-5V-16.1z"/>
						<g class="st2">
							<ellipse class="st3" cx="11.9" cy="-14.8" rx="0.7" ry="0.4"/>
							<ellipse class="st3" cx="17.5" cy="-17.5" rx="0.5" ry="0.2"/>
							<ellipse class="st3" cx="7.6" cy="-16" rx="0.4" ry="0.2"/>
							<ellipse class="st3" cx="16.5" cy="-14.3" rx="0.4" ry="0.2"/>
							<ellipse class="st3" cx="12.7" cy="-12.6" rx="0.2" ry="0.1"/>
							<ellipse class="st3" cx="14.9" cy="-15" rx="0.1" ry="0"/>
							<ellipse class="st3" cx="20" cy="-17.6" rx="0.1" ry="0"/>
							<ellipse class="st3" cx="17.9" cy="-16" rx="0.1" ry="0"/>
							<ellipse class="st3" cx="15.3" cy="-12" rx="0.1" ry="0"/>
							<ellipse class="st3" cx="11.1" cy="-18.4" rx="0.1" ry="0"/>
							<ellipse class="st3" cx="5.1" cy="-16" rx="0.1" ry="0"/>
							<ellipse class="st3" cx="15.3" cy="-17" rx="0.2" ry="0.1"/>
							<ellipse class="st3" cx="21.6" cy="-16.1" rx="0.2" ry="0.1"/>
							<ellipse class="st3" cx="19.2" cy="-14.7" rx="0.2" ry="0.1"/>
							<ellipse class="st3" cx="15.5" cy="-19.7" rx="0.2" ry="0.1"/>
							<ellipse class="st3" cx="8.2" cy="-17.9" rx="0.2" ry="0.1"/>
							<ellipse class="st3" cx="11.3" cy="-16.9" rx="0.2" ry="0.1"/>
							<ellipse class="st3" cx="9.9" cy="-15.9" rx="0.2" ry="0.1"/>
							<ellipse class="st3" cx="9.9" cy="-13.9" rx="0.2" ry="0.1"/>
							<ellipse class="st3" cx="12.6" cy="-18.7" rx="0.4" ry="0.2"/>
						</g>
						<path class="st6" d="M25.1-16.1V-5L13.9,0.6v-11.2L25.1-16.1z"/>
					</g>
				</g>
				<g transform="translate(32,0)scale(2)">
					<g>
						<path class="st7" d="M2-7.6C1.3-6.4,0.5-6.2-1.1-5.4c-2,1.1-1.6,2.7-1.2,3.6c-0.4-0.4-0.8-0.9-1-1.4C-3.7-4.2-3-4.9-2.5-5.6
							c0.4-0.6,0.7-1.1,0.8-1.8c0.1-0.1,1-0.5,0.9-1.3c0-1-0.9-2.1-1.9-2.6c0.1,0.7-0.1,1.1-0.5,1.9c-0.4,1.1,0.4,1.7,0.9,1.9l0,0
							C-2.3-6.7-2.9-6-3.4-5.2C-3.2-6-3-7.2-4.5-8c-1.2-0.6-1.8-0.7-2.4-1.6C-7.5-8.2-7.4-6-6.4-4.9C-5.6-4-4.3-4.3-4-4.4
							C-4.2-4-4.3-3.7-4.3-3.2C-4.1-2-2.7-1.5-2.3-0.4C-2.3-0.3-2.1-0.2-2-0.2l0,0c0.3,0,0.5-0.3,0.4-0.6c0,0,0-0.1,0-0.1
							c0.5,0.1,2,0.4,3-0.7C2.7-3,2.8-5.8,2-7.6z M-2.1-10.5c0,0,0.4,0.6,0.5,1.9c0,0.7,0,1.1,0,1.2c-0.1,0-0.3,0-0.4-0.1
							c0,0,0,0,0-0.1C-1.7-9.1-2.1-10.5-2.1-10.5z M-3.9-4.5C-4.1-4.6-4.7-5-5.5-6.1c-1.1-1.5-1.1-2.2-1.1-2.2S-5.7-6.4-3.6-5l0,0
							c0,0.1-0.1,0.1-0.1,0.2C-3.8-4.7-3.8-4.6-3.9-4.5z M-0.2-2.4c-0.5,0.6-1.3,1.2-1.5,1.4c-0.1-0.2-0.3-0.4-0.5-0.7l0,0
							c2.6-1.8,3.7-4.3,3.7-4.3S1.3-4.2-0.2-2.4z"/>
					</g>
				</g>
			</g>
		</g>
	</g>
</g>
</svg>
