<?xml version="1.0" encoding="utf-8"?>
<!-- Generator: Adobe Illustrator 24.0.1, SVG Export Plug-In . SVG Version: 6.00 Build 0)  -->
<svg version="1.1" id="Ebene_1" xmlns:serif="http://www.serif.com/"
	 xmlns="http://www.w3.org/2000/svg" xmlns:xlink="http://www.w3.org/1999/xlink" x="0px" y="0px" viewBox="0 0 297 210"
	 style="enable-background:new 0 0 297 210;" xml:space="preserve">
<style type="text/css">
	.st0{fill:none;}
	.st1{fill-opacity:0.3;}
	.st2{fill:#2D3134;}
	.st3{fill-opacity:0.29;}
	.st4{fill:#999999;}
	.st5{fill:#808285;}
	.st6{fill-opacity:0.39;}
	.st7{fill-opacity:0.11;}
	.st8{fill:#656565;}
	.st9{fill:#20526E;}
	.st10{fill:#20526E;fill-opacity:0.15;}
	.st11{fill-opacity:0.2;}
	.st12{fill:#E5E5E5;}
	.st13{fill:#262626;fill-opacity:0.3;}
	.st14{fill:#FFFFFF;fill-opacity:0.1;}
	.st15{fill:#286789;}
	.st16{fill-opacity:0.15;}
	.st17{fill-opacity:0.1;}
	.st18{fill-rule:evenodd;clip-rule:evenodd;fill:#2D3134;fill-opacity:0.3;}
	.st19{fill-rule:evenodd;clip-rule:evenodd;fill-opacity:0.8;}
	.st20{fill-rule:evenodd;clip-rule:evenodd;fill:#2D3134;}
	.st21{fill:#999999;fill-opacity:0.3;}
	.st22{fill:none;stroke:#FF0000;stroke-width:12.3937;stroke-linejoin:round;stroke-miterlimit:10;stroke-opacity:0.66;}
</style>
<g id="v" transform="matrix(1.26195,0,0,1.75078,-699.812,-729.346)">
	<rect x="606.5" y="416.6" class="st0" width="131.3" height="119.9"/>
	<g transform="matrix(3.6454,0,0,2.62758,854.763,659.828)">
		<g transform="matrix(1,0,0,1,-32,-20)">
			<path class="st1" d="M-25.3-54l3.2-1.6l7.5,3.8l-3.2,1.6L-25.3-54z"/>
			<path class="st2" d="M-18.7-52.1c-0.1-0.1-0.3-0.1-0.4,0l-0.3,0.1c-0.1,0-0.2,0.2-0.2,0.3c0,0.3,0.3,0.7,0.6,0.8
				c0.2,0.1,0.3,0.1,0.4,0c0,0,0.3-0.1,0.3-0.2c0.1-0.1,0.1-0.2,0.1-0.3C-18.1-51.6-18.4-51.9-18.7-52.1z"/>
			<path class="st3" d="M-18.6-50.8c0,0,0.3-0.1,0.3-0.1c0.1-0.1,0.1-0.2,0.1-0.3c0-0.1,0-0.3-0.1-0.4l-0.3,0.1
				c0.1,0.1,0.1,0.3,0.1,0.4C-18.4-51-18.5-50.8-18.6-50.8z"/>
			<path class="st4" d="M-18.5-51.2c0,0.2-0.2,0.3-0.4,0.2c-0.2-0.1-0.4-0.4-0.4-0.6s0.2-0.3,0.4-0.2
				C-18.7-51.7-18.5-51.4-18.5-51.2z"/>
			<path class="st5" d="M-18.9-51c-0.2-0.1-0.4-0.4-0.4-0.6c0-0.1,0-0.2,0.1-0.2c-0.1,0-0.2,0.1-0.2,0.2
				C-19.4-51.4-19.2-51.1-18.9-51c0.1,0.1,0.2,0.1,0.3,0C-18.7-50.9-18.8-50.9-18.9-51z"/>
			<path class="st2" d="M-18.8-51.3c0,0.1-0.1,0.1-0.2,0.1c-0.1,0-0.2-0.2-0.2-0.3c0-0.1,0.1-0.1,0.2-0.1
				C-18.8-51.5-18.8-51.4-18.8-51.3z"/>
			<path class="st6" d="M-18.8-51.3c0,0.1-0.1,0.1-0.2,0.1c-0.1,0-0.2-0.2-0.2-0.3c0-0.1,0.1-0.1,0.2-0.1
				C-18.8-51.5-18.8-51.4-18.8-51.3z"/>
			<path class="st2" d="M-18.8-51.3c0,0.1-0.1,0.1-0.2,0.1c-0.1,0-0.2-0.2-0.2-0.3c0-0.1,0.1-0.1,0.2-0.1
				C-18.9-51.5-18.8-51.4-18.8-51.3z"/>
			<path class="st7" d="M-18.4-51.1c0,0.3-0.3,0.4-0.6,0.3s-0.6-0.5-0.6-0.8c0-0.3,0.3-0.4,0.6-0.3C-18.7-51.8-18.4-51.4-18.4-51.1z
				"/>
			<path class="st2" d="M-24.2-54.9c-0.1-0.1-0.3-0.1-0.4,0l-0.3,0.1c-0.1,0-0.2,0.2-0.2,0.3c0,0.3,0.3,0.7,0.6,0.8
				c0.2,0.1,0.3,0.1,0.4,0c0,0,0.3-0.1,0.3-0.2c0.1-0.1,0.1-0.2,0.1-0.3C-23.7-54.3-23.9-54.7-24.2-54.9z"/>
			<path class="st3" d="M-24.1-53.6c0,0,0.3-0.1,0.3-0.1c0.1-0.1,0.1-0.2,0.1-0.3c0-0.1,0-0.3-0.1-0.4l-0.3,0.1
				C-24-54.1-24-54-24-53.9C-23.9-53.7-24-53.6-24.1-53.6z"/>
			<path class="st4" d="M-24.1-54c0,0.2-0.2,0.3-0.4,0.2c-0.2-0.1-0.4-0.4-0.4-0.6c0-0.2,0.2-0.3,0.4-0.2
				C-24.3-54.5-24.1-54.2-24.1-54z"/>
			<path class="st5" d="M-24.5-53.8c-0.2-0.1-0.4-0.4-0.4-0.6c0-0.1,0-0.2,0.1-0.2c-0.1,0-0.2,0.1-0.2,0.2
				C-24.9-54.2-24.8-53.9-24.5-53.8c0.1,0.1,0.2,0.1,0.3,0C-24.3-53.7-24.4-53.7-24.5-53.8z"/>
			<path class="st2" d="M-24.3-54.1c0,0.1-0.1,0.1-0.2,0.1c-0.1,0-0.2-0.2-0.2-0.3c0-0.1,0.1-0.1,0.2-0.1
				C-24.4-54.3-24.3-54.2-24.3-54.1z"/>
			<path class="st6" d="M-24.3-54.1c0,0.1-0.1,0.1-0.2,0.1c-0.1,0-0.2-0.2-0.2-0.3c0-0.1,0.1-0.1,0.2-0.1
				C-24.4-54.3-24.3-54.2-24.3-54.1z"/>
			<path class="st2" d="M-24.3-54.1c0,0.1-0.1,0.1-0.2,0.1s-0.2-0.2-0.2-0.3c0-0.1,0.1-0.1,0.2-0.1S-24.3-54.2-24.3-54.1z"/>
			<path class="st7" d="M-23.9-53.9c0,0.3-0.3,0.4-0.6,0.3s-0.6-0.5-0.6-0.8c0-0.3,0.3-0.4,0.6-0.3C-24.2-54.6-23.9-54.2-23.9-53.9z
				"/>
			<path class="st8" d="M-22.1-57l-3.2,1.6v0.4l7.5,3.8l3.2-1.6v-0.4L-22.1-57z"/>
			<path class="st3" d="M-14.6-53.2v0.4l-3.2,1.6v-0.4L-14.6-53.2z"/>
			<path class="st7" d="M-25.3-55.4v0.4l7.5,3.8v-0.4L-25.3-55.4z"/>
			<path class="st8" d="M-15.6-52.6l-1.2,0.6v0.2l2.8,1l0.4-0.2v-0.2L-15.6-52.6z M-16.2-52l0.6-0.3l1.1,0.8L-16.2-52z"/>
			<path class="st7" d="M-16.8-52v0.2l2.8,1V-51L-16.8-52z"/>
			<path class="st3" d="M-14-50.8l0.4-0.2v-0.2L-14-51V-50.8z"/>
			<path class="st7" d="M-15.6-52.2l1.1,0.8l0.5,0.2l-1.6-1.2V-52.2z"/>
			<path class="st3" d="M-16.4-52l0.2,0.1l0.6-0.3v-0.2L-16.4-52z"/>
		</g>
	</g>
	<g transform="matrix(4.50216,0,0,3.24512,845.666,640.887)">
		<g transform="matrix(1,0,0,1,-24,-20)">
			<g>
				<g>
					<path class="st9" d="M-13.3-36.2c-0.2-0.1-0.4-0.3-0.7-0.4l-2.9-1.4c-0.4-0.2-0.7-0.4-1.2-0.4c-1.1,0-2,0.9-2,2
						c0,0.7,0.3,1.2,0.8,1.5c0.3,0.2,0.4,0.2,0.6,0.3l2.9,1.5c0.4,0.2,0.8,0.4,1.2,0.4c1.1,0,2-0.9,2-1.9
						C-12.5-35.3-12.8-35.8-13.3-36.2z"/>
					<path class="st10" d="M-14.5-33.2c-0.4,0-0.8-0.2-1.2-0.4l-2.9-1.5c-0.2-0.1-0.4-0.2-0.6-0.3c-0.4-0.3-0.7-0.8-0.8-1.3v0.3
						c0,0.7,0.3,1.2,0.8,1.5c0.3,0.2,0.4,0.2,0.6,0.3l2.9,1.5c0.4,0.2,0.8,0.4,1.2,0.4c1.1,0,2-0.9,2-1.9c0-0.1,0-0.2,0-0.3
						C-12.7-33.9-13.5-33.2-14.5-33.2z"/>
				</g>
				<g>
					<path class="st4" d="M-17.7-37.2v0.2l1.2,0.6l1.2-0.6v-0.2l-1.2-0.6L-17.7-37.2z"/>
					<path class="st11" d="M-16.5-36.8l0.8-0.4l-0.8-0.4l-0.8,0.4L-16.5-36.8z"/>
					<path class="st3" d="M-16.5-36.6v0.2l1.2-0.6v-0.2L-16.5-36.6z"/>
					<path class="st7" d="M-16.5-36.6v0.2l-1.2-0.6v-0.2L-16.5-36.6z"/>
					<path class="st7" d="M-15.9-37.1l0.2-0.1l-0.8-0.4v0.2L-15.9-37.1z"/>
					<path class="st3" d="M-16.5-37.4v-0.2l-0.8,0.4l0.2,0.1L-16.5-37.4z"/>
					<path class="st12" d="M-16.5-37.4c-0.2,0-0.4,0.1-0.4,0.2v0.2l0.4,0.2l0.4-0.2v-0.2C-16.1-37.3-16.3-37.4-16.5-37.4z"/>
					<path class="st11" d="M-16.5-37c-0.2,0-0.4-0.1-0.4-0.2v0.2l0.4,0.2l0.4-0.2v-0.2C-16.1-37.1-16.3-37-16.5-37z"/>
				</g>
				<path class="st4" d="M-12.3-33v-3l-0.2,0.1v0.3l-0.4,0.2v-0.3l-0.2,0.1v3l0.2-0.1v-0.1l0.4-0.2v0.1L-12.3-33z M-12.9-35.2
					l0.4-0.2v0.2l-0.4,0.2V-35.2z M-12.9-34.8l0.4-0.2v0.2l-0.4,0.2V-34.8z M-12.9-34.4l0.4-0.2v0.2l-0.4,0.2V-34.4z M-12.9-34
					l0.4-0.2v0.2l-0.4,0.2V-34z M-12.9-33.6l0.4-0.2v0.2l-0.4,0.2V-33.6z M-12.9-33v-0.2l0.4-0.2v0.2L-12.9-33z"/>
				<path class="st3" d="M-12.3-33v-3l-0.2,0.1v0.3l-0.4,0.2v-0.3l-0.2,0.1v3l0.2-0.1v-0.1l0.4-0.2v0.1L-12.3-33z M-12.9-35.2
					l0.4-0.2v0.2l-0.4,0.2V-35.2z M-12.9-34.8l0.4-0.2v0.2l-0.4,0.2V-34.8z M-12.9-34.4l0.4-0.2v0.2l-0.4,0.2V-34.4z M-12.9-34
					l0.4-0.2v0.2l-0.4,0.2V-34z M-12.9-33.6l0.4-0.2v0.2l-0.4,0.2V-33.6z M-12.9-33v-0.2l0.4-0.2v0.2L-12.9-33z"/>
				<g>
					<path class="st4" d="M-13.3-33v-0.4l-0.4,0.2v0.4L-13.3-33z"/>
					<path class="st3" d="M-13.3-33v-0.4l-0.4,0.2v0.4L-13.3-33z"/>
					<g>
						<path class="st12" d="M-13.5-33.2C-13.5-33.3-13.5-33.3-13.5-33.2l0.1,0c0,0,0,0,0,0.1c0,0.1-0.1,0.1-0.1,0.2c0,0-0.1,0-0.1,0
							c0,0-0.1,0-0.1,0c0,0,0,0,0-0.1C-13.6-33.1-13.6-33.2-13.5-33.2z"/>
						<path class="st3" d="M-13.6-33c0,0.1,0.1,0.1,0.1,0.1c0.1,0,0.1-0.1,0.1-0.2s-0.1-0.1-0.1-0.1C-13.5-33.2-13.6-33.1-13.6-33z"
							/>
						<path class="st7" d="M-13.6-33c0-0.1,0.1-0.1,0.1-0.2c0,0,0.1,0,0.1,0l-0.1,0h-0.1C-13.6-33.2-13.6-33.1-13.6-33
							C-13.6-33-13.6-33-13.6-33C-13.6-33-13.5-33-13.6-33C-13.6-33-13.6-33-13.6-33z"/>
					</g>
				</g>
			</g>
		</g>
	</g>
	<g transform="matrix(0.480779,0,0,0.346542,1019.91,715.678)">
		<g transform="matrix(1,0,0,1,-240,-240)">
			<path class="st13" d="M-421.5-417.4l30.9-15.5l-51.6-25.8l-30.9,15.5L-421.5-417.4z"/>
			<path class="st2" d="M-451.6-459.2c-3-1.5-5.6-1.6-7.5-0.6l-5.4,2.7c-1.8,1-3,3-3,5.8c0,5.8,4.7,12.8,10.5,15.7
				c3.2,1.6,6,1.6,7.9,0.3l4.4-2.2c2.2-0.8,3.6-3,3.6-6.1C-441.1-449.3-445.8-456.3-451.6-459.2z"/>
			<path class="st7" d="M-446.6-440.8c0,5.8-4.7,8.1-10.5,5.2c-5.8-2.9-10.5-9.9-10.5-15.7s4.7-8.1,10.5-5.2
				S-446.6-446.5-446.6-440.8z"/>
			<path class="st14" d="M-456.6-456.7c-3.2-1.6-6-1.6-7.9-0.4c1.8-0.6,4.1-0.3,6.7,0.9c5.8,2.9,10.5,9.9,10.5,15.7
				c0,2.6-1,4.6-2.6,5.6c2.3-0.8,3.8-2.9,3.8-6.2C-446.1-446.8-450.8-453.8-456.6-456.7z"/>
			<path class="st15" d="M-451.9-443.4c0,2.8-2.3,4-5.1,2.6c-2.8-1.4-5.1-4.9-5.1-7.7s2.3-4,5.1-2.6
				C-454.2-449.7-451.9-446.3-451.9-443.4z"/>
			<path class="st15" d="M-452.3-443.6c0,2.6-2.1,3.7-4.7,2.4s-4.7-4.5-4.7-7.1c0-2.6,2.1-3.7,4.7-2.4S-452.3-446.2-452.3-443.6z"/>
			<path class="st15" d="M-452.3-443.6c0,2.6-2.1,3.7-4.7,2.4s-4.7-4.5-4.7-7.1c0-2.6,2.1-3.7,4.7-2.4S-452.3-446.2-452.3-443.6z"/>
			<path class="st3" d="M-452.3-443.6c0,2.6-2.1,3.7-4.7,2.4s-4.7-4.5-4.7-7.1c0-2.6,2.1-3.7,4.7-2.4S-452.3-446.2-452.3-443.6z"/>
			<path class="st16" d="M-457-450.7c-2.6-1.3-4.7-0.3-4.7,2.3c0,1.4,0.6,3,1.6,4.3l6.6-3.3C-454.4-448.8-455.6-450-457-450.7z"/>
			<path class="st15" d="M-456.1-450.2l-1.2,0.7c-0.6,0.3-1,0.7-1,1.5c0,1.4,1.2,3.1,2.6,3.8c0.7,0.3,1.2,0.4,1.7,0.2l1.7-0.8
				C-452.9-446.8-454.3-448.9-456.1-450.2z"/>
			<path class="st3" d="M-456.1-450.2l-1.2,0.7c-0.6,0.3-1,0.7-1,1.5c0,1.4,1.2,3.1,2.6,3.8c0.7,0.3,1.2,0.4,1.7,0.2l1.7-0.8
				C-452.9-446.8-454.3-448.9-456.1-450.2z"/>
			<path class="st15" d="M-453.3-445.4c0,1.4-1.2,2-2.6,1.3c-1.4-0.7-2.6-2.4-2.6-3.8s1.2-2,2.6-1.3
				C-454.4-448.6-453.3-446.8-453.3-445.4z"/>
			<path class="st14" d="M-457-456.5c-5.8-2.9-10.5-0.6-10.5,5.2s4.7,12.8,10.5,15.7c5.8,2.9,10.5,0.6,10.5-5.2
				C-446.6-446.6-451.3-453.6-457-456.5z M-457-436.8c-5.1-2.5-9.2-8.7-9.2-13.8s4.1-7.2,9.2-4.6c5.1,2.5,9.2,8.7,9.2,13.8
				C-447.8-436.3-452-434.2-457-436.8z"/>
			<path class="st8" d="M-453.5-464l10.5,5.2l-8,4l-10.5-5.3L-453.5-464z"/>
			<path class="st15" d="M-437.6-450l-5.5-8.8l-10.5-5.2l-4,1.1l-8,4l4-1.1l10.5,5.3l5.5,8.8v3.8l8-4L-437.6-450L-437.6-450z"/>
			<path class="st3" d="M-453.5-464l-4,1.1l-8,4l4-1.1L-453.5-464z"/>
			<path class="st15" d="M-416-445v-7.9l-18.6,9.3v7.9L-416-445z"/>
			<path class="st17" d="M-437.6-450l-5.5-8.8l-8,4l5.5,8.8L-437.6-450z"/>
			<path class="st3" d="M-437.5-450v3.8l-8,4v-3.8L-437.5-450z"/>
			<path class="st2" d="M-434.6-484.7l-18.6,9.3v14.9l6.7,3.4l5.4,8.7v9.5l6.5,3.2l18.6-8.5v-31.1L-434.6-484.7z"/>
			<path class="st8" d="M-439.2-446.4v-2.5l-5.9-9.7l-6.1-3.1v-10.5l15.9,8v19.6L-439.2-446.4z"/>
			<path class="st2" d="M-445.3-458.3l-1.2-0.6v-11.3l1.2,0.6V-458.3z"/>
			<path class="st17" d="M-435.4-462.7l-9.4,4.7l5.5,8.9l3.9-1.9V-462.7z"/>
			<path class="st14" d="M-440.8-466.9l-10.4,5.3l6.1,3l0.3,0.6l9.4-4.7v-1.5L-440.8-466.9z"/>
			<path class="st7" d="M-453.2-475.3v14.9l6.7,3.4l5.4,8.7v9.5l6.5,3.2V-466L-453.2-475.3z"/>
			<path class="st8" d="M-416.7-453.1v-19.6l-17.1,8.5v19.6L-416.7-453.1z"/>
			<path class="st2" d="M-416-473.2v-2.2l-18.6,9.3v2.2L-416-473.2z"/>
			<path class="st15" d="M-439.9-446.2l-2,1v10.3l0.8,0.4l0.8-0.4l1.2-10.9L-439.9-446.2z"/>
			<path class="st7" d="M-441.9-445.2l0.8,0.4v10.3l-0.8-0.4V-445.2z"/>
			<path class="st3" d="M-439.2-445.8l-2,1v10.3l0.8-0.4L-439.2-445.8z"/>
			<path class="st15" d="M-439.6-443.6l-1.6,0.8v0.8l3.6,1.8l0.8-2L-439.6-443.6z"/>
			<path class="st7" d="M-441.1-442.8v0.8l3.6,1.8v-0.8L-441.1-442.8z"/>
			<path class="st15" d="M-439.9-440.2l-1.2,0.6v0.8l3.6,1.8l0.4-1.8L-439.9-440.2z"/>
			<path class="st7" d="M-441.1-439.6v0.8l3.6,1.8v-0.8L-441.1-439.6z"/>
			<path class="st15" d="M-440.3-436.9l-0.8,0.4v0.8l3.6,1.8v-1.6L-440.3-436.9z"/>
			<path class="st7" d="M-441.1-436.5v0.8l3.6,1.8v-0.8L-441.1-436.5z"/>
			<path class="st15" d="M-435.6-444l-2,1v10.3l0.8,0.4l0.8-0.4l1.2-10.9L-435.6-444z"/>
			<path class="st7" d="M-437.6-443l0.8,0.4v10.3l-0.8-0.4V-443z"/>
			<path class="st3" d="M-434.8-443.6l-2,1v10.3l0.8-0.4L-434.8-443.6z"/>
			<path class="st2" d="M-401-452.7c-2.5-1.2-4.7-1.3-6.3-0.5l-4.5,2.3c-1.5,0.8-2.5,2.5-2.5,4.9c0,4.8,3.9,10.7,8.8,13.1
				c2.7,1.3,5,1.3,6.6,0.3l3.7-1.8c1.8-0.7,3-2.5,3-5.1C-392.3-444.4-396.2-450.3-401-452.7z"/>
			<path class="st7" d="M-396.8-437.2c0,4.8-3.9,6.8-8.8,4.4c-4.8-2.4-8.8-8.3-8.8-13.1s3.9-6.8,8.8-4.4
				C-400.8-448-396.8-442.1-396.8-437.2z"/>
			<path class="st14" d="M-405.2-450.6c-2.6-1.3-5-1.3-6.6-0.3c1.5-0.5,3.5-0.3,5.6,0.8c4.8,2.4,8.8,8.3,8.8,13.1
				c0,2.2-0.8,3.8-2.2,4.7c1.9-0.6,3.2-2.4,3.2-5.2C-396.4-442.3-400.4-448.2-405.2-450.6z"/>
			<path class="st15" d="M-401.3-439.5c0,2.4-1.9,3.3-4.3,2.1c-2.4-1.2-4.3-4.1-4.3-6.4c0-2.4,1.9-3.3,4.3-2.1
				C-403.2-444.7-401.3-441.9-401.3-439.5z"/>
			<path class="st15" d="M-401.7-439.7c0,2.2-1.8,3.1-3.9,2c-2.2-1.1-3.9-3.7-3.9-5.9s1.8-3.1,3.9-2
				C-403.4-444.5-401.7-441.8-401.7-439.7z"/>
			<path class="st15" d="M-401.7-439.7c0,2.2-1.8,3.1-3.9,2c-2.2-1.1-3.9-3.7-3.9-5.9s1.8-3.1,3.9-2
				C-403.4-444.5-401.7-441.8-401.7-439.7z"/>
			<path class="st3" d="M-401.7-439.7c0,2.2-1.8,3.1-3.9,2c-2.2-1.1-3.9-3.7-3.9-5.9s1.8-3.1,3.9-2
				C-403.4-444.5-401.7-441.8-401.7-439.7z"/>
			<path class="st16" d="M-405.6-445.6c-2.2-1.1-3.9-0.2-3.9,2c0,1.2,0.5,2.5,1.3,3.6l5.6-2.8C-403.4-443.9-404.4-445-405.6-445.6z"
				/>
			<path class="st15" d="M-404.8-445.1l-1,0.6c-0.5,0.2-0.9,0.6-0.9,1.3c0,1.2,1,2.6,2.1,3.2c0.6,0.3,1.1,0.3,1.4,0.2l1.4-0.7
				C-402.1-442.3-403.3-444.1-404.8-445.1z"/>
			<path class="st3" d="M-404.8-445.1l-1,0.6c-0.5,0.2-0.9,0.6-0.9,1.3c0,1.2,1,2.6,2.1,3.2c0.6,0.3,1.1,0.3,1.4,0.2l1.4-0.7
				C-402.1-442.3-403.3-444.1-404.8-445.1z"/>
			<path class="st15" d="M-402.4-441.1c0,1.2-1,1.7-2.1,1.1c-1.2-0.6-2.1-2-2.1-3.2c0-1.2,1-1.7,2.1-1.1
				C-403.4-443.7-402.4-442.3-402.4-441.1z"/>
			<path class="st15" d="M-398.9-432.3v-2.2l-11.1,5.6v2.2L-398.9-432.3z"/>
			<path class="st3" d="M-398.9-432.3v-2.2l-11.1,5.6v2.2L-398.9-432.3z"/>
			<path class="st2" d="M-419.9-447.2l24.2,12.1l-11.1,5.6l-24.2-12.1L-419.9-447.2z"/>
			<path class="st15" d="M-395.7-432.9v-2.2l-11.1,5.6v2.2L-395.7-432.9z"/>
			<path class="st3" d="M-395.7-432.9v-2.2l-11.1,5.6v2.2L-395.7-432.9z"/>
			<path class="st15" d="M-431-437.3v-4.4l24.2,12.1v2.2l-3.2-1.6v2.2L-431-437.3z"/>
			<path class="st7" d="M-431-437.3v-4.4l24.2,12.1v2.2l-3.2-1.6v2.2L-431-437.3z"/>
			<path class="st3" d="M-416-448.6v-26.8l-18.6,9.3v26.8L-416-448.6z"/>
			<path class="st15" d="M-431-455.7l11.1-5.6l16.3,10c3,1.8,4.8,5,4.8,8.4v6.1l-11.1,5.6l-21-10.5V-455.7z"/>
			<g>
				<path class="st2" d="M-411.5-441.8l-1.5-0.8c-0.6-0.3-1.4,0.1-1.4,0.9v5.1c0,1.1,0.6,2,1.5,2.5l2.1,1.1c0.4,0.2,1,0.2,1.4,0
					l10.4-5.2v-4.5c0-1.4-0.3-2.9-0.9-4.1l-10.3,5.2C-410.5-441.5-411-441.5-411.5-441.8z"/>
				<path class="st2" d="M-428.2-450.1v0.4l6.3,3.2v-0.4L-428.2-450.1z"/>
				<path class="st2" d="M-428.2-449.2v0.4l6.3,3.2v-0.4L-428.2-449.2z"/>
				<path class="st2" d="M-428.2-448.2v0.4l6.3,3.2v-0.4L-428.2-448.2z"/>
				<path class="st2" d="M-428.2-447.2v0.4l6.3,3.2v-0.4L-428.2-447.2z"/>
				<path class="st2" d="M-428.2-446.2v0.4l6.3,3.2v-0.4L-428.2-446.2z"/>
			</g>
			<path class="st7" d="M-431-441.6v-14.1l16.3,10c3,1.8,4.8,5,4.8,8.4v6.1L-431-441.6z"/>
			<path class="st7" d="M-431-441.6v-14.1l16.3,10c3,1.8,4.8,5,4.8,8.4v6.1L-431-441.6z"/>
			<path class="st3" d="M-399.8-446.9l-11,5.5l-0.2-0.1c0.6,1.3,1,2.8,1,4.3v6.1l11.1-5.6v-6.1
				C-398.9-444.2-399.2-445.6-399.8-446.9z"/>
			<path class="st15" d="M-435-486.4l-18.6,9.3v3l19.4,9.7l18.6-9.3v-3L-435-486.4z"/>
			<path class="st7" d="M-453.6-474.1v-3l19.4,9.7v3L-453.6-474.1z"/>
			<g transform="matrix(-0.6313,0.7756,-0.7756,-0.6313,563.101,-2.7664)">
				<ellipse class="st18" cx="255.4" cy="1059" rx="0.6" ry="0.4"/>
			</g>
			<g transform="matrix(-0.6313,0.7756,-0.7756,-0.6313,500.151,75.1621)">
				<ellipse class="st18" cx="165.1" cy="1064.1" rx="0.6" ry="0.4"/>
			</g>
			<path class="st3" d="M-415.6-473.7v-3l-18.6,9.3v3L-415.6-473.7z"/>
			<path class="st2" d="M-431.2-461.8c-0.9,0-1.6,0.4-1.6,0.8v15.5c0,0.4,0.7,0.8,1.6,0.8c0.9,0,1.6-0.4,1.6-0.8v-15.5
				C-429.6-461.5-430.4-461.8-431.2-461.8z"/>
			<ellipse class="st19" cx="-431.2" cy="-461.1" rx="1.2" ry="0.5"/>
			<path class="st2" d="M-428.4-441.6c0-0.3-0.2-0.6-0.5-0.7c-0.2-0.1-0.3-0.1-0.4,0c-0.3,0.1-0.6,0.1-0.9-0.1
				c-0.3-0.2-0.5-0.5-0.5-0.9v-27.3h-1.2v27.3c0,0.8,0.4,1.5,1.1,1.9c0.4,0.2,0.8,0.3,1.2,0.3c0.3,0,0.7-0.1,1-0.2
				C-428.6-441.3-428.4-441.4-428.4-441.6z"/>
			<path class="st2" d="M-430.6-461.8v0.3c0.4,0.1,0.6,0.2,0.6,0.4c0,0.3-0.5,0.5-1.2,0.5s-1.2-0.2-1.2-0.5c0-0.2,0.2-0.3,0.6-0.4
				v-0.3c-0.6,0.1-1,0.4-1,0.7v15.5c0,0.4,0.7,0.8,1.6,0.8c0.9,0,1.6-0.4,1.6-0.8v-15.5C-429.6-461.4-430.1-461.7-430.6-461.8z"/>
			<path class="st11" d="M-431.2-460.3c-0.9,0-1.6-0.4-1.6-0.8v15.5c0,0.4,0.7,0.8,1.6,0.8c0.9,0,1.6-0.4,1.6-0.8v-15.5
				C-429.6-460.6-430.4-460.3-431.2-460.3z"/>
			<ellipse class="st20" cx="-431.2" cy="-470.6" rx="0.6" ry="0.4"/>
			<path class="st2" d="M-423.3-441.5c-2.5-1.2-4.7-1.3-6.3-0.5l-4.5,2.3c-1.5,0.8-2.5,2.5-2.5,4.9c0,4.8,3.9,10.7,8.8,13.1
				c2.7,1.3,5,1.3,6.6,0.3l3.7-1.8c1.8-0.7,3-2.5,3-5.1C-414.5-433.2-418.4-439-423.3-441.5z"/>
			<path class="st7" d="M-419-426c0,4.8-3.9,6.8-8.8,4.4c-4.8-2.4-8.8-8.3-8.8-13.1s3.9-6.8,8.8-4.4S-419-430.9-419-426z"/>
			<path class="st15" d="M-423.5-428.3c0,2.4-1.9,3.3-4.3,2.1c-2.4-1.2-4.3-4.1-4.3-6.4c0-2.4,1.9-3.3,4.3-2.1
				C-425.4-433.5-423.5-430.6-423.5-428.3z"/>
			<path class="st15" d="M-423.9-428.4c0,2.2-1.8,3.1-3.9,2c-2.2-1.1-3.9-3.7-3.9-5.9c0-2.2,1.8-3.1,3.9-2
				C-425.6-433.3-423.9-430.6-423.9-428.4z"/>
			<path class="st15" d="M-423.9-428.4c0,2.2-1.8,3.1-3.9,2c-2.2-1.1-3.9-3.7-3.9-5.9c0-2.2,1.8-3.1,3.9-2
				C-425.6-433.3-423.9-430.6-423.9-428.4z"/>
			<path class="st3" d="M-423.9-428.4c0,2.2-1.8,3.1-3.9,2c-2.2-1.1-3.9-3.7-3.9-5.9c0-2.2,1.8-3.1,3.9-2
				C-425.6-433.3-423.9-430.6-423.9-428.4z"/>
			<path class="st16" d="M-427.8-434.3c-2.2-1.1-3.9-0.2-3.9,2c0,1.2,0.5,2.5,1.3,3.6l5.6-2.8C-425.6-432.7-426.6-433.8-427.8-434.3
				z"/>
			<path class="st15" d="M-427.1-433.9l-1,0.6c-0.5,0.2-0.9,0.6-0.9,1.3c0,1.2,1,2.6,2.1,3.2c0.6,0.3,1.1,0.3,1.4,0.2l1.4-0.7
				C-424.3-431-425.5-432.8-427.1-433.9z"/>
			<path class="st3" d="M-427.1-433.9l-1,0.6c-0.5,0.2-0.9,0.6-0.9,1.3c0,1.2,1,2.6,2.1,3.2c0.6,0.3,1.1,0.3,1.4,0.2l1.4-0.7
				C-424.3-431-425.5-432.8-427.1-433.9z"/>
			<path class="st15" d="M-424.7-429.9c0,1.2-1,1.7-2.1,1.1c-1.2-0.6-2.1-2-2.1-3.2c0-1.2,1-1.7,2.1-1.1
				C-425.6-432.5-424.7-431.1-424.7-429.9z"/>
			<path class="st14" d="M-427.8-439.2c-4.8-2.4-8.8-0.5-8.8,4.4s3.9,10.7,8.8,13.1c4.8,2.4,8.8,0.5,8.8-4.4
				C-419-430.9-423-436.7-427.8-439.2z M-427.8-422.7c-4.3-2.1-7.7-7.3-7.7-11.6c0-4.3,3.5-6,7.7-3.9c4.3,2.1,7.7,7.3,7.7,11.6
				C-420.1-422.3-423.5-420.6-427.8-422.7z"/>
			<path class="st11" d="M-435.4-448.4l-3.8,2v-2.6l3.8-2V-448.4z"/>
			<path class="st16" d="M-442.9-468v5.8l3.3,1.7l4.2,6.7v-10.4L-442.9-468z"/>
		</g>
	</g>
	<g transform="matrix(0.899682,0,0,0.697886,33.2572,156.672)">
		<g transform="matrix(3.4579,0,0,3.99408,821.704,590.037)">
			<g transform="matrix(1,0,0,1,-40,-24)">
				<g>
					<path class="st21" d="M-0.4-20.5c0-0.1,0-0.1,0-0.2c0-0.8-0.7-1.5-1.5-1.5c-0.5,0-0.9,0.2-1.2,0.6c-0.2-0.1-0.5-0.2-0.7-0.2
						c-0.9,0-1.7,0.8-1.7,1.7s0.8,1.7,1.7,1.7c0.3,0,0.6-0.1,0.9-0.3c0.1,0.9,0.8,1.6,1.8,1.6c1,0,1.8-0.8,1.8-1.8
						C0.7-19.6,0.3-20.3-0.4-20.5z"/>
				</g>
			</g>
		</g>
		<g transform="matrix(2.78833,0,0,-3.59766,823.237,607.32)">
			<g transform="matrix(1,0,0,1,-40,-24)">
				<g>
					<path class="st21" d="M-10.3,75.5c0-0.1,0-0.1,0-0.2c0-0.8-0.7-1.5-1.5-1.5c-0.5,0-0.9,0.2-1.2,0.6c-0.2-0.1-0.5-0.2-0.7-0.2
						c-0.9,0-1.7,0.8-1.7,1.7s0.8,1.7,1.7,1.7c0.3,0,0.6-0.1,0.9-0.3c0.1,0.9,0.8,1.6,1.8,1.6c1,0,1.8-0.8,1.8-1.8
						C-9.2,76.4-9.6,75.7-10.3,75.5z"/>
				</g>
			</g>
		</g>
		<g transform="matrix(-1.22417,0,0,1.76437,717.604,591.393)">
			<g transform="matrix(1,0,0,1,-40,-24)">
				<g>
					<path class="st21" d="M82.4-76.3c0-0.1,0-0.1,0-0.2c0-0.8-0.7-1.5-1.5-1.5c-0.5,0-0.9,0.2-1.2,0.6c-0.2-0.1-0.5-0.2-0.7-0.2
						c-0.9,0-1.7,0.8-1.7,1.7s0.8,1.7,1.7,1.7c0.3,0,0.6-0.1,0.9-0.3c0.1,0.9,0.8,1.6,1.8,1.6c1,0,1.8-0.8,1.8-1.8
						C83.5-75.5,83-76.1,82.4-76.3z"/>
				</g>
			</g>
		</g>
	</g>
	<g transform="matrix(0.792425,0,0,0.571174,434.376,416.583)">
		<path class="st22" d="M300.1,11.9c40.9,0,74.1,33.2,74.1,74.1c0,40.9-33.2,74.1-74.1,74.1c-40.9,0-74.1-33.2-74.1-74.1
			C226,45.1,259.2,11.9,300.1,11.9z M355.6,45.5l-55.2,40.8c-27.5,19.9-55,39.8-55,39.8L355.6,45.5z"/>
	</g>
</g>
</svg>
