<?xml version="1.0" encoding="utf-8"?>
<!-- Generator: Adobe Illustrator 24.0.1, SVG Export Plug-In . SVG Version: 6.00 Build 0)  -->
<svg version="1.1" id="Ebene_1" xmlns:serif="http://www.serif.com/"
	 xmlns="http://www.w3.org/2000/svg" xmlns:xlink="http://www.w3.org/1999/xlink" x="0px" y="0px" viewBox="0 0 297 210"
	 style="enable-background:new 0 0 297 210;" xml:space="preserve">
<style type="text/css">
	.st0{fill:none;}
	.st1{fill:#2D3134;}
	.st2{fill-opacity:0.11;}
	.st3{fill:#FFFFFF;fill-opacity:0.1;}
	.st4{fill:#3388B7;}
	.st5{fill-opacity:0.29;}
	.st6{fill-opacity:0.15;}
	.st7{opacity:0.5;}
	.st8{fill:#262626;fill-opacity:0.1;}
	.st9{fill:#3388B7;fill-opacity:0.11;}
	.st10{fill:#3388B7;fill-opacity:0.29;}
	.st11{fill:#999999;}
	.st12{fill-opacity:0.3;}
	.st13{fill-opacity:0.2;}
	.st14{fill:#262626;fill-opacity:0.3;}
	.st15{fill:#286789;}
	.st16{fill:#656565;}
	.st17{fill-opacity:0.1;}
	.st18{fill-rule:evenodd;clip-rule:evenodd;fill:#2D3134;fill-opacity:0.3;}
	.st19{fill-rule:evenodd;clip-rule:evenodd;fill-opacity:0.8;}
	.st20{fill-rule:evenodd;clip-rule:evenodd;fill:#2D3134;}
	.st21{fill:#999999;fill-opacity:0.3;}
	.st22{fill:none;stroke:#FF0000;stroke-width:12.3937;stroke-linejoin:round;stroke-miterlimit:10;stroke-opacity:0.66;}
</style>
<g id="v" transform="matrix(1.26195,0,0,1.75078,-699.812,-729.346)">
	<rect x="606.5" y="416.6" class="st0" width="131.3" height="119.9"/>
	<g transform="matrix(0.634775,0,0,0.402904,873.015,666.779)">
		<g transform="matrix(1,0,0,1,-280,-200)">
			<path class="st1" d="M-60.1-319.9c-1.9-0.9-3.6-1-4.8-0.4l-3.5,1.7c-1.2,0.6-1.9,1.9-1.9,3.7c0,3.7,3,8.2,6.7,10
				c2,1,3.8,1,5.1,0.2l2.8-1.4c1.4-0.5,2.3-1.9,2.3-3.9C-53.4-313.5-56.4-318-60.1-319.9z"/>
			<path class="st2" d="M-56.9-308.1c0,3.7-3,5.2-6.7,3.3c-3.7-1.8-6.7-6.3-6.7-10c0-3.7,3-5.2,6.7-3.3
				C-59.9-316.3-56.9-311.8-56.9-308.1z"/>
			<path class="st3" d="M-63.2-318.3c-2-1-3.8-1-5-0.2c1.2-0.4,2.6-0.2,4.3,0.6c3.7,1.8,6.7,6.3,6.7,10c0,1.7-0.6,2.9-1.6,3.6
				c1.5-0.5,2.4-1.9,2.4-3.9C-56.6-312-59.5-316.4-63.2-318.3z"/>
			<path class="st4" d="M-60.3-309.8c0,1.8-1.5,2.5-3.3,1.6c-1.8-0.9-3.3-3.1-3.3-4.9s1.5-2.5,3.3-1.6
				C-61.7-313.8-60.3-311.6-60.3-309.8z"/>
			<path class="st4" d="M-60.5-309.9c0,1.7-1.3,2.3-3,1.5c-1.6-0.8-3-2.8-3-4.5c0-1.7,1.3-2.3,3-1.5
				C-61.9-313.6-60.5-311.6-60.5-309.9z"/>
			<path class="st4" d="M-60.5-309.9c0,1.7-1.3,2.3-3,1.5c-1.6-0.8-3-2.8-3-4.5c0-1.7,1.3-2.3,3-1.5
				C-61.9-313.6-60.5-311.6-60.5-309.9z"/>
			<path class="st5" d="M-60.5-309.9c0,1.7-1.3,2.3-3,1.5c-1.6-0.8-3-2.8-3-4.5c0-1.7,1.3-2.3,3-1.5
				C-61.9-313.6-60.5-311.6-60.5-309.9z"/>
			<path class="st6" d="M-63.5-314.4c-1.7-0.8-3-0.2-3,1.5c0,0.9,0.4,1.9,1,2.8l4.2-2.1C-61.8-313.2-62.6-314-63.5-314.4z"/>
			<path class="st4" d="M-63-314.1l-0.8,0.4c-0.4,0.2-0.7,0.4-0.7,1c0,0.9,0.7,2,1.6,2.5c0.4,0.2,0.8,0.2,1.1,0.1l1.1-0.5
				C-60.9-311.9-61.8-313.3-63-314.1z"/>
			<path class="st5" d="M-63-314.1l-0.8,0.4c-0.4,0.2-0.7,0.4-0.7,1c0,0.9,0.7,2,1.6,2.5c0.4,0.2,0.8,0.2,1.1,0.1l1.1-0.5
				C-60.9-311.9-61.8-313.3-63-314.1z"/>
			<path class="st5" d="M-58.7-313.6c1.1,1.8,1.8,3.7,1.8,5.5c0,1.7-0.6,2.9-1.6,3.5l2.8-1.4c1.4-0.5,2.3-1.9,2.3-3.9
				c0-1.8-0.7-3.7-1.8-5.5L-58.7-313.6z"/>
			<path class="st4" d="M-61.1-311.1c0,0.9-0.7,1.3-1.6,0.8c-0.9-0.5-1.6-1.5-1.6-2.5s0.7-1.3,1.6-0.8
				C-61.9-313.1-61.1-312-61.1-311.1z"/>
			<g class="st7">
				<path d="M-62.5-312.8c0,0.1-0.1,0.2-0.3,0.1c-0.1-0.1-0.3-0.3-0.3-0.4c0-0.1,0.1-0.2,0.3-0.1C-62.6-313.1-62.5-313-62.5-312.8z"
					/>
				<path d="M-62.5-310.7c0,0.1-0.1,0.2-0.3,0.1c-0.1-0.1-0.3-0.3-0.3-0.4c0-0.1,0.1-0.2,0.3-0.1C-62.6-311-62.5-310.8-62.5-310.7z"
					/>
				<path d="M-63.3-313.1c0.1,0.2,0.1,0.3,0,0.4c-0.1,0.1-0.3,0-0.4-0.2c-0.1-0.2-0.1-0.3,0-0.4C-63.6-313.3-63.4-313.3-63.3-313.1z
					"/>
				<path d="M-61.8-310.8c0.1,0.2,0.1,0.3,0,0.4c-0.1,0.1-0.3,0-0.4-0.2c-0.1-0.2-0.1-0.3,0-0.4C-62.1-311.1-61.9-311-61.8-310.8z"
					/>
				<path d="M-63.8-312.7c0.1,0.1,0.3,0.3,0.3,0.4c0,0.1-0.1,0.2-0.3,0.1c-0.1-0.1-0.3-0.3-0.3-0.4C-64.1-312.7-64-312.8-63.8-312.7
					z"/>
				<path d="M-61.7-311.6c0.1,0.1,0.3,0.3,0.3,0.4c0,0.1-0.1,0.2-0.3,0.1c-0.1-0.1-0.3-0.3-0.3-0.4C-62-311.6-61.8-311.7-61.7-311.6
					z"/>
				<path d="M-63.7-311.8c0.1-0.1,0.3,0,0.4,0.2c0.1,0.2,0.1,0.3,0,0.4c-0.1,0.1-0.3,0-0.4-0.2C-63.8-311.6-63.8-311.7-63.7-311.8z"
					/>
				<path d="M-62.2-312.6c0.1-0.1,0.3,0,0.4,0.2c0.1,0.2,0.1,0.3,0,0.4c-0.1,0.1-0.3,0-0.4-0.2C-62.3-312.3-62.3-312.5-62.2-312.6z"
					/>
			</g>
			<path class="st3" d="M-63.5-318.1c-3.7-1.8-6.7-0.4-6.7,3.3c0,3.7,3,8.2,6.7,10c3.7,1.8,6.7,0.4,6.7-3.3
				C-56.9-311.8-59.9-316.3-63.5-318.1z M-63.5-305.6c-3.3-1.6-5.9-5.6-5.9-8.8c0-3.3,2.6-4.6,5.9-2.9c3.2,1.6,5.9,5.6,5.9,8.8
				S-60.3-303.9-63.5-305.6z"/>
			<g class="st7">
				<path d="M-64-317.8l1.1,0.5l-0.5-0.8c0,0,0,0,0,0c-0.3-0.2-0.6-0.3-1-0.4L-64-317.8z"/>
				<path d="M-63-305l-1.1-0.5l0.4,0.7c0,0,0.1,0,0.1,0c0.3,0.2,0.6,0.3,0.9,0.4L-63-305z"/>
				<path d="M-67-318.3l0.9-0.1l-0.7-0.6h0c-0.3,0-0.5,0.1-0.8,0.1L-67-318.3z"/>
				<path d="M-60-304.6l-0.9,0.1l0.6,0.6h0.1c0.3,0,0.5-0.1,0.8-0.1L-60-304.6z"/>
				<path d="M-69.1-316.9l0.5-0.7l-0.7-0.2l0,0c-0.2,0.2-0.3,0.4-0.4,0.7L-69.1-316.9z"/>
				<path d="M-57.9-306.1l-0.5,0.7l0.7,0.3c0,0,0,0,0-0.1c0.2-0.2,0.3-0.4,0.4-0.6L-57.9-306.1z"/>
				<path d="M-69.7-314v-1.1l-0.5,0.3v0c0,0.3,0,0.7,0.1,1L-69.7-314z"/>
				<path d="M-57.4-309v1.1l0.5-0.1v-0.1c0-0.3,0-0.6-0.1-1L-57.4-309z"/>
				<path d="M-68.6-310.5l-0.5-1.2l-0.2,0.6c0,0,0,0,0,0.1c0.2,0.4,0.3,0.7,0.5,1.1L-68.6-310.5z"/>
				<path d="M-58.5-312.5l0.5,1.2l0.3-0.5c0,0,0-0.1,0-0.1c-0.2-0.4-0.3-0.7-0.5-1L-58.5-312.5z"/>
				<path d="M-66.2-307.2l-0.9-1l0.2,0.8l0,0c0.3,0.3,0.6,0.6,0.9,0.9L-66.2-307.2z"/>
				<path d="M-61-315.8l0.9,1l-0.1-0.7c0,0-0.1-0.1-0.1-0.1c-0.3-0.3-0.6-0.6-0.8-0.8L-61-315.8z"/>
			</g>
			<g class="st7">
				<path d="M-64.6-320.3c-0.1,0-0.2,0.1-0.3,0.1l-0.9,0.4l-0.1,0.2l-1.8,0.9c0.2-0.1,0.5-0.1,0.8-0.1h0l1.8-0.8L-64.6-320.3z"/>
				<path d="M-56.3-316.8c-0.2-0.2-0.4-0.5-0.6-0.7l-1.1,1.2l-3.1-0.1c0.3,0.3,0.6,0.5,0.8,0.8c0,0,0.1,0.1,0.1,0.1l2.7,0.1
					L-56.3-316.8z"/>
				<path d="M-63.5-318.1C-63.5-318.1-63.5-318.1-63.5-318.1l3-0.3l0.7-1.3c-0.1,0-0.2-0.1-0.3-0.1c-0.2-0.1-0.4-0.2-0.6-0.3
					l-0.7,1.2l-3.2,0.4C-64.2-318.4-63.9-318.3-63.5-318.1z"/>
				<path d="M-55.1-307.6l1.4-0.7c0.1-0.4,0.2-0.8,0.2-1.2l-1.5,0.8l-2-0.5c0,0.3,0.1,0.7,0.1,1v0.1L-55.1-307.6z"/>
				<path d="M-57.4-305.9c-0.1,0.2-0.3,0.4-0.4,0.6c0,0,0,0,0,0.1l0.4,0.1l1.2-0.6L-57.4-305.9z"/>
				<path d="M-57.7-311.8l2.6,0.5l1.3-1.2c-0.1-0.4-0.3-0.8-0.5-1.2l-1.3,1.1l-2.7-0.4C-58.1-312.6-57.9-312.3-57.7-311.8
					C-57.7-311.9-57.7-311.8-57.7-311.8z"/>
			</g>
			<path class="st4" d="M-63-313.9c-0.5-0.3-1-0.3-1.4-0.1l-14.1,7.1c-0.4,0.2-0.6,0.6-0.6,1.2c0,1.1,0.9,2.5,2,3.1
				c0.6,0.3,1.1,0.3,1.4,0.1c0,0,14.1-7.1,14.2-7.2c0.3-0.2,0.5-0.6,0.5-1.1C-60.9-311.9-61.8-313.3-63-313.9z"/>
			<path class="st5" d="M-75.7-302.5c0.1-0.1,14.1-7.1,14.2-7.2c0.3-0.2,0.5-0.6,0.5-1.1c0-0.5-0.2-1-0.4-1.4l-14.1,7.1
				c0.3,0.5,0.4,1,0.4,1.4C-75.1-303.1-75.3-302.7-75.7-302.5z"/>
			<path class="st2" d="M-75.1-303.7c0,1.1-0.9,1.6-2,1c-1.1-0.6-2-1.9-2-3.1s0.9-1.6,2-1C-76-306.1-75.1-304.8-75.1-303.7z"/>
			<g transform="matrix(0.838959,0.0281419,-0.0273124,0.81423,29.8625,27.3702)">
				<path class="st8" d="M-98.7-366.2l28.9-17l-51.3-21.3l-26.7,13.7L-98.7-366.2z"/>
			</g>
			<g transform="matrix(1,0,0,1,43.8542,-11.9026)">
				<g transform="matrix(0.284421,0,0,0.927911,192.86,73.2073)">
					<path class="st4" d="M-949.8-390.3l-31.7,15.9l0.8,2.2v5.2l-0.8,1.6l1.2,0.6l31.7-15.9v-8.9L-949.8-390.3z"/>
				</g>
				<g transform="matrix(0.284421,0,0,0.927911,159.857,64.4315)">
					<path class="st4" d="M-856.8-382.7l-31.7,15.9l0.8,2.2v5.2l-0.8,1.6l1.2,0.6l31.7-15.9v-8.9L-856.8-382.7z"/>
				</g>
				<g transform="matrix(0.284421,0,0,0.927911,129.54,50.5287)">
					<path class="st4" d="M-771.4-370.7l-31.7,15.9l0.8,2.2v5.2l-0.8,1.6l1.2,0.6l31.7-15.9v-8.9L-771.4-370.7z"/>
				</g>
				<g transform="matrix(0.284421,0,0,0.927911,100.293,34.5054)">
					<path class="st4" d="M-688.9-356.9l-31.7,15.9l0.8,2.2v5.2l-0.8,1.6l1.2,0.6l31.7-15.9v-8.9L-688.9-356.9z"/>
				</g>
				<g transform="matrix(0.284421,0,0,0.927911,227.433,90.175)">
					<path class="st4" d="M-1047.3-405l-31.7,15.9l0.8,2.2v5.2l-0.8,1.6l1.2,0.6l31.7-15.9v-8.9L-1047.3-405z"/>
				</g>
				<g transform="matrix(0.284421,0,0,0.927911,65.0049,23.7327)">
					<path class="st4" d="M-589.4-347.6l-31.7,15.9l0.8,2.2v5.2l-0.8,1.6l1.2,0.6l31.7-15.9v-8.9L-589.4-347.6z"/>
				</g>
				<g transform="matrix(0.284421,0,0,0.927911,192.86,73.2073)">
					<path class="st9" d="M-981.6-365.5l0.8-1.6v-5.2l-0.8-2.2l1.2,0.6v8.9L-981.6-365.5z"/>
				</g>
				<g transform="matrix(0.284421,0,0,0.927911,159.857,64.4315)">
					<path class="st9" d="M-888.5-357.9l0.8-1.6v-5.2l-0.8-2.2l1.2,0.6v8.9L-888.5-357.9z"/>
				</g>
				<g transform="matrix(0.284421,0,0,0.927911,129.54,50.5287)">
					<path class="st9" d="M-803.1-345.9l0.8-1.6v-5.2l-0.8-2.2l1.2,0.6v8.9L-803.1-345.9z"/>
				</g>
				<g transform="matrix(0.284421,0,0,0.927911,100.293,34.5054)">
					<path class="st9" d="M-720.6-332.1l0.8-1.6v-5.2l-0.8-2.2l1.2,0.6v8.9L-720.6-332.1z"/>
				</g>
				<g transform="matrix(0.284421,0,0,0.927911,227.433,90.175)">
					<path class="st9" d="M-1079-380.2l0.8-1.6v-5.2l-0.8-2.2l1.2,0.6v8.9L-1079-380.2z"/>
				</g>
				<g transform="matrix(0.284421,0,0,0.927911,65.0049,23.7327)">
					<path class="st9" d="M-621.2-322.8l0.8-1.6v-5.2l-0.8-2.2l1.2,0.6v8.9L-621.2-322.8z"/>
				</g>
				<g transform="matrix(0.284421,0,0,0.927911,192.86,73.2073)">
					<path class="st10" d="M-948.6-380.8v-8.9l-31.7,15.9v8.9L-948.6-380.8z"/>
				</g>
				<g transform="matrix(0.284421,0,0,0.927911,159.857,64.4315)">
					<path class="st10" d="M-855.6-373.2v-8.9l-31.7,15.9v8.9L-855.6-373.2z"/>
				</g>
				<g transform="matrix(0.284421,0,0,0.927911,129.54,50.5287)">
					<path class="st10" d="M-770.2-361.2v-8.9l-31.7,15.9v8.9L-770.2-361.2z"/>
				</g>
				<g transform="matrix(0.284421,0,0,0.927911,100.293,34.5054)">
					<path class="st10" d="M-687.7-347.4v-8.9l-31.7,15.9v8.9L-687.7-347.4z"/>
				</g>
				<g transform="matrix(0.284421,0,0,0.927911,227.433,90.175)">
					<path class="st10" d="M-1046.1-395.5v-8.9l-31.7,15.9v8.9L-1046.1-395.5z"/>
				</g>
				<g transform="matrix(0.284421,0,0,0.927911,65.0049,23.7327)">
					<path class="st10" d="M-588.3-338v-8.9l-31.7,15.9v8.9L-588.3-338z"/>
				</g>
			</g>
			<path class="st4" d="M-61.5-318.9h-8.9l-5.9,3v7.9l4-0.8l5.9-3v-0.7l5-2.5V-318.9z"/>
			<path class="st5" d="M-66.5-311.7v-0.7l-1,0.5h-5v3.2L-66.5-311.7z"/>
			<path class="st2" d="M-67.5-315.9h-8.9v7.9l4-0.8v-3.2h5V-315.9z"/>
			<path class="st5" d="M-61.5-314.9v-4l-5.9,3v4L-61.5-314.9z"/>
			<path class="st11" d="M-49.8-307c-0.4,0-0.8,0.2-0.8,0.4v2.4c0,0.2,0.4,0.4,0.8,0.4c0.4,0,0.8-0.2,0.8-0.4v-2.4
				C-49-306.8-49.4-307-49.8-307z"/>
			<path class="st12" d="M-49.8-306.2c-0.4,0-0.8-0.2-0.8-0.4v2.4c0,0.2,0.4,0.4,0.8,0.4c0.4,0,0.8-0.2,0.8-0.4v-2.4
				C-49-306.3-49.4-306.2-49.8-306.2z"/>
			<path class="st4" d="M-49.8-316.1c-0.6,0-1,0.2-1,0.5v9.1c0,0.3,0.4,0.5,1,0.5c0.6,0,1-0.2,1-0.5v-9.1
				C-48.8-315.9-49.3-316.1-49.8-316.1z"/>
			<path class="st12" d="M-49.8-315.1c-0.6,0-1-0.2-1-0.5v9.1c0,0.3,0.4,0.5,1,0.5c0.6,0,1-0.2,1-0.5v-9.1
				C-48.8-315.3-49.3-315.1-49.8-315.1z"/>
			<path class="st4" d="M-54.2-307.9c-5.5,0-9.9,2.2-9.9,5v1.2c0,2.7,4.4,5,9.9,5s9.9-2.2,9.9-5v-1.2
				C-44.3-305.7-48.7-307.9-54.2-307.9z"/>
			<path class="st13" d="M-54.2-298c-5.5,0-9.9-2.2-9.9-5v1.2c0,2.7,4.4,5,9.9,5s9.9-2.2,9.9-5v-1.2C-44.3-300.2-48.7-298-54.2-298z
				"/>
			<path class="st4" d="M-67.1-311.9h-2.2l-0.4,0.2v1.2l22.4,6.1l1.2-0.6v-1.2L-67.1-311.9z"/>
			<path class="st2" d="M-69.7-310.5v-1.2l22.4,6.1v1.2L-69.7-310.5z"/>
			<path class="st5" d="M-46.1-305v-1.2l-1.2,0.6v1.2L-46.1-305z"/>
			<path class="st4" d="M-69.7-311.7l-1.2,0.6v1.2l15.3,9.7l1.2-0.6v-1.2L-69.7-311.7z"/>
			<path class="st2" d="M-70.8-309.9v-1.2l15.3,9.7v1.2L-70.8-309.9z"/>
			<path class="st5" d="M-54.4-300.8v-1.2l-1.2,0.6v1.2L-54.4-300.8z"/>
			<path class="st4" d="M-61.5-318.7l-5.9,3v3.8l50.1,24.6l5.8-2.9l0.1-4.1L-61.5-318.7z"/>
			<path class="st1" d="M-61.5-318.9l-5.9,3v0.6l50.2,23.9l5.8-2.8l-27.9-13.5L-61.5-318.9z"/>
			<path class="st2" d="M-67.5-311.9v-4l50.2,24.4l-0.1,4.1L-67.5-311.9z"/>
			<g transform="matrix(1,0,0,1,140.455,68.1902)">
				<path class="st5" d="M-151.9-358.5v-4l-5.9,3v4L-151.9-358.5z"/>
			</g>
			<path class="st11" d="M-57.8-303c-0.4,0-0.8,0.2-0.8,0.4v2.4c0,0.2,0.4,0.4,0.8,0.4c0.4,0,0.8-0.2,0.8-0.4v-2.4
				C-57-302.8-57.3-303-57.8-303z"/>
			<path class="st12" d="M-57.8-302.2c-0.4,0-0.8-0.2-0.8-0.4v2.4c0,0.2,0.4,0.4,0.8,0.4c0.4,0,0.8-0.2,0.8-0.4v-2.4
				C-57-302.4-57.3-302.2-57.8-302.2z"/>
			<path class="st4" d="M-57.8-312.1c-0.6,0-1,0.2-1,0.5v9.1c0,0.3,0.4,0.5,1,0.5c0.6,0,1-0.2,1-0.5v-9.1
				C-56.8-311.9-57.2-312.1-57.8-312.1z"/>
			<path class="st12" d="M-57.8-311.1c-0.6,0-1-0.2-1-0.5v9.1c0,0.3,0.4,0.5,1,0.5c0.6,0,1-0.2,1-0.5v-9.1
				C-56.8-311.3-57.2-311.1-57.8-311.1z"/>
			<path class="st4" d="M-47.2-314.1l-2.8,1.4v1.8l1.2,0.6l2.8-1.4v-1.8L-47.2-314.1z"/>
			<path class="st2" d="M-50-310.9v-1.8l1.2,0.6v1.8L-50-310.9z"/>
			<path class="st5" d="M-46.1-311.7v-1.8l-2.8,1.4v1.8L-46.1-311.7z"/>
			<path class="st4" d="M-48.6-306.2l-9.1,4.6v1.8l1.2,0.6l9.1-4.6v-1.8L-48.6-306.2z"/>
			<path class="st2" d="M-57.8-299.8v-1.8l1.2,0.6v1.8L-57.8-299.8z"/>
			<path class="st5" d="M-47.4-303.8v-1.8l-9.1,4.6v1.8L-47.4-303.8z"/>
			<path class="st4" d="M-56-309.5l-2.8,1.4v1.8l1.2,0.6l2.8-1.4v-1.8L-56-309.5z"/>
			<path class="st2" d="M-58.7-306.4v-1.8l1.2,0.6v1.8L-58.7-306.4z"/>
			<path class="st5" d="M-54.8-307.2v-1.8l-2.8,1.4v1.8L-54.8-307.2z"/>
			<path class="st1" d="M-79.9-309.9c-1.9-0.9-3.6-1-4.8-0.4l-3.5,1.7c-1.2,0.6-1.9,1.9-1.9,3.7c0,3.7,3,8.2,6.7,10
				c2,1,3.8,1,5.1,0.2l2.8-1.4c1.4-0.5,2.3-1.9,2.3-3.9C-73.2-303.6-76.2-308.1-79.9-309.9z"/>
			<path class="st2" d="M-76.7-298.2c0,3.7-3,5.2-6.7,3.3c-3.7-1.8-6.7-6.3-6.7-10c0-3.7,3-5.2,6.7-3.3
				C-79.7-306.4-76.7-301.9-76.7-298.2z"/>
			<path class="st3" d="M-83.1-308.4c-2-1-3.8-1-5-0.2c1.2-0.4,2.6-0.2,4.3,0.6c3.7,1.8,6.7,6.3,6.7,10c0,1.7-0.6,2.9-1.6,3.6
				c1.5-0.5,2.4-1.9,2.4-3.9C-76.4-302-79.4-306.5-83.1-308.4z"/>
			<path class="st4" d="M-80.1-299.9c0,1.8-1.5,2.5-3.3,1.6c-1.8-0.9-3.3-3.1-3.3-4.9c0-1.8,1.5-2.5,3.3-1.6
				C-81.6-303.9-80.1-301.7-80.1-299.9z"/>
			<path class="st4" d="M-80.4-300c0,1.7-1.3,2.3-3,1.5c-1.6-0.8-3-2.8-3-4.5s1.3-2.3,3-1.5C-81.7-303.7-80.4-301.7-80.4-300z"/>
			<path class="st4" d="M-80.4-300c0,1.7-1.3,2.3-3,1.5c-1.6-0.8-3-2.8-3-4.5s1.3-2.3,3-1.5C-81.7-303.7-80.4-301.7-80.4-300z"/>
			<path class="st5" d="M-80.4-300c0,1.7-1.3,2.3-3,1.5c-1.6-0.8-3-2.8-3-4.5s1.3-2.3,3-1.5C-81.7-303.7-80.4-301.7-80.4-300z"/>
			<path class="st6" d="M-83.4-304.5c-1.7-0.8-3-0.2-3,1.5c0,0.9,0.4,1.9,1,2.8l4.2-2.1C-81.7-303.3-82.5-304.1-83.4-304.5z"/>
			<path class="st4" d="M-82.8-304.2l-0.8,0.4c-0.4,0.2-0.7,0.4-0.7,1c0,0.9,0.7,2,1.6,2.5c0.4,0.2,0.8,0.2,1.1,0.1l1.1-0.5
				C-80.7-302-81.6-303.4-82.8-304.2z"/>
			<path class="st5" d="M-82.8-304.2l-0.8,0.4c-0.4,0.2-0.7,0.4-0.7,1c0,0.9,0.7,2,1.6,2.5c0.4,0.2,0.8,0.2,1.1,0.1l1.1-0.5
				C-80.7-302-81.6-303.4-82.8-304.2z"/>
			<path class="st5" d="M-78.5-303.7c1.1,1.8,1.8,3.7,1.8,5.5c0,1.7-0.6,2.9-1.6,3.5l2.8-1.4c1.4-0.5,2.3-1.9,2.3-3.9
				c0-1.8-0.7-3.7-1.8-5.5L-78.5-303.7z"/>
			<path class="st4" d="M-81-301.2c0,0.9-0.7,1.3-1.6,0.8c-0.9-0.5-1.6-1.5-1.6-2.5s0.7-1.3,1.6-0.8C-81.7-303.2-81-302.1-81-301.2z
				"/>
		</g>
	</g>
	<g transform="matrix(0.480779,0,0,0.346542,1009.31,703.742)">
		<g transform="matrix(1,0,0,1,-240,-240)">
			<path class="st14" d="M-403.8-389.8l30.9-15.5l-51.6-25.8l-30.9,15.5L-403.8-389.8z"/>
			<path class="st1" d="M-433.9-431.6c-3-1.5-5.6-1.6-7.5-0.6l-5.4,2.7c-1.8,1-3,3-3,5.8c0,5.8,4.7,12.8,10.5,15.7
				c3.2,1.6,6,1.6,7.9,0.3l4.4-2.2c2.2-0.8,3.6-3,3.6-6.1C-423.4-421.7-428.1-428.7-433.9-431.6z"/>
			<path class="st2" d="M-428.9-413.2c0,5.8-4.7,8.1-10.5,5.2c-5.8-2.9-10.5-9.9-10.5-15.7s4.7-8.1,10.5-5.2
				C-433.6-426-428.9-418.9-428.9-413.2z"/>
			<path class="st3" d="M-438.9-429.1c-3.2-1.6-6-1.6-7.9-0.4c1.8-0.6,4.1-0.3,6.7,0.9c5.8,2.9,10.5,9.9,10.5,15.7
				c0,2.6-1,4.6-2.6,5.6c2.3-0.8,3.8-2.9,3.8-6.2C-428.4-419.2-433.1-426.2-438.9-429.1z"/>
			<path class="st15" d="M-434.2-415.8c0,2.8-2.3,4-5.1,2.6c-2.8-1.4-5.1-4.9-5.1-7.7c0-2.8,2.3-4,5.1-2.6
				C-436.5-422.1-434.2-418.6-434.2-415.8z"/>
			<path class="st15" d="M-434.7-416c0,2.6-2.1,3.7-4.7,2.4s-4.7-4.5-4.7-7.1c0-2.6,2.1-3.7,4.7-2.4
				C-436.7-421.8-434.7-418.6-434.7-416z"/>
			<path class="st15" d="M-434.7-416c0,2.6-2.1,3.7-4.7,2.4s-4.7-4.5-4.7-7.1c0-2.6,2.1-3.7,4.7-2.4
				C-436.7-421.8-434.7-418.6-434.7-416z"/>
			<path class="st5" d="M-434.7-416c0,2.6-2.1,3.7-4.7,2.4s-4.7-4.5-4.7-7.1c0-2.6,2.1-3.7,4.7-2.4
				C-436.7-421.8-434.7-418.6-434.7-416z"/>
			<path class="st6" d="M-439.4-423.1c-2.6-1.3-4.7-0.3-4.7,2.3c0,1.4,0.6,3,1.6,4.3l6.6-3.3C-436.7-421.1-438-422.4-439.4-423.1z"
				/>
			<path class="st15" d="M-438.5-422.6l-1.2,0.7c-0.6,0.3-1,0.7-1,1.5c0,1.4,1.2,3.1,2.6,3.8c0.7,0.3,1.2,0.4,1.7,0.2l1.7-0.8
				C-435.2-419.1-436.6-421.3-438.5-422.6z"/>
			<path class="st5" d="M-438.5-422.6l-1.2,0.7c-0.6,0.3-1,0.7-1,1.5c0,1.4,1.2,3.1,2.6,3.8c0.7,0.3,1.2,0.4,1.7,0.2l1.7-0.8
				C-435.2-419.1-436.6-421.3-438.5-422.6z"/>
			<path class="st15" d="M-435.6-417.8c0,1.4-1.2,2-2.6,1.3c-1.4-0.7-2.6-2.4-2.6-3.8s1.2-2,2.6-1.3
				C-436.7-421-435.6-419.2-435.6-417.8z"/>
			<path class="st3" d="M-439.4-428.9c-5.8-2.9-10.5-0.6-10.5,5.2s4.7,12.8,10.5,15.7c5.8,2.9,10.5,0.6,10.5-5.2
				S-433.6-426-439.4-428.9z M-439.4-409.2c-5.1-2.5-9.2-8.7-9.2-13.8s4.1-7.2,9.2-4.6c5.1,2.5,9.2,8.7,9.2,13.8
				C-430.1-408.7-434.3-406.6-439.4-409.2z"/>
			<path class="st16" d="M-435.8-436.4l10.5,5.2l-8,4l-10.5-5.3L-435.8-436.4z"/>
			<path class="st15" d="M-419.9-422.4l-5.5-8.8l-10.5-5.2l-4,1.1l-8,4l4-1.1l10.5,5.3l5.5,8.8v3.8l8-4L-419.9-422.4L-419.9-422.4z"
				/>
			<path class="st5" d="M-435.8-436.4l-4,1.1l-8,4l4-1.1L-435.8-436.4z"/>
			<path class="st15" d="M-398.3-417.4v-7.9l-18.6,9.3v7.9L-398.3-417.4z"/>
			<path class="st17" d="M-419.9-422.4l-5.5-8.8l-8,4l5.5,8.8L-419.9-422.4z"/>
			<path class="st5" d="M-419.9-422.4v3.8l-8,4v-3.8L-419.9-422.4z"/>
			<path class="st1" d="M-416.9-457l-18.6,9.3v14.9l6.7,3.4l5.4,8.7v9.5l6.5,3.2l18.6-8.5v-31.1L-416.9-457z"/>
			<path class="st16" d="M-421.5-418.8v-2.5l-5.9-9.7l-6.1-3.1v-10.5l15.9,8v19.6L-421.5-418.8z"/>
			<path class="st1" d="M-427.6-430.7l-1.2-0.6v-11.3l1.2,0.6V-430.7z"/>
			<path class="st17" d="M-417.7-435.1l-9.4,4.7l5.5,8.9l3.9-1.9V-435.1z"/>
			<path class="st3" d="M-423.1-439.3l-10.4,5.3l6.1,3l0.3,0.6l9.4-4.7v-1.5L-423.1-439.3z"/>
			<path class="st2" d="M-435.6-447.7v14.9l6.7,3.4l5.4,8.7v9.5l6.5,3.2v-30.3L-435.6-447.7z"/>
			<path class="st16" d="M-399.1-425.5v-19.6l-17.1,8.5v19.6L-399.1-425.5z"/>
			<path class="st1" d="M-398.3-445.5v-2.2l-18.6,9.3v2.2L-398.3-445.5z"/>
			<path class="st15" d="M-422.3-418.6l-2,1v10.3l0.8,0.4l0.8-0.4l1.2-10.9L-422.3-418.6z"/>
			<path class="st2" d="M-424.3-417.6l0.8,0.4v10.3l-0.8-0.4V-417.6z"/>
			<path class="st5" d="M-421.5-418.2l-2,1v10.3l0.8-0.4L-421.5-418.2z"/>
			<path class="st15" d="M-421.9-416l-1.6,0.8v0.8l3.6,1.8l0.8-2L-421.9-416z"/>
			<path class="st2" d="M-423.5-415.2v0.8l3.6,1.8v-0.8L-423.5-415.2z"/>
			<path class="st15" d="M-422.3-412.6l-1.2,0.6v0.8l3.6,1.8l0.4-1.8L-422.3-412.6z"/>
			<path class="st2" d="M-423.5-412v0.8l3.6,1.8v-0.8L-423.5-412z"/>
			<path class="st15" d="M-422.7-409.3l-0.8,0.4v0.8l3.6,1.8v-1.6L-422.7-409.3z"/>
			<path class="st2" d="M-423.5-408.9v0.8l3.6,1.8v-0.8L-423.5-408.9z"/>
			<path class="st15" d="M-417.9-416.4l-2,1v10.3l0.8,0.4l0.8-0.4l1.2-10.9L-417.9-416.4z"/>
			<path class="st2" d="M-419.9-415.4l0.8,0.4v10.3l-0.8-0.4V-415.4z"/>
			<path class="st5" d="M-417.1-416l-2,1v10.3l0.8-0.4L-417.1-416z"/>
			<path class="st1" d="M-383.4-425.1c-2.5-1.2-4.7-1.3-6.3-0.5l-4.5,2.3c-1.5,0.8-2.5,2.5-2.5,4.9c0,4.8,3.9,10.7,8.8,13.1
				c2.7,1.3,5,1.3,6.6,0.3l3.7-1.8c1.8-0.7,3-2.5,3-5.1C-374.6-416.8-378.5-422.7-383.4-425.1z"/>
			<path class="st2" d="M-379.2-409.6c0,4.8-3.9,6.8-8.8,4.4s-8.8-8.3-8.8-13.1s3.9-6.8,8.8-4.4S-379.2-414.5-379.2-409.6z"/>
			<path class="st3" d="M-387.5-423c-2.6-1.3-5-1.3-6.6-0.3c1.5-0.5,3.5-0.3,5.6,0.8c4.8,2.4,8.8,8.3,8.8,13.1
				c0,2.2-0.8,3.8-2.2,4.7c1.9-0.6,3.2-2.4,3.2-5.2C-378.8-414.7-382.7-420.6-387.5-423z"/>
			<path class="st15" d="M-383.6-411.9c0,2.4-1.9,3.3-4.3,2.1c-2.4-1.2-4.3-4.1-4.3-6.4c0-2.4,1.9-3.3,4.3-2.1
				C-385.5-417.1-383.6-414.2-383.6-411.9z"/>
			<path class="st15" d="M-384-412c0,2.2-1.8,3.1-3.9,2c-2.2-1.1-3.9-3.7-3.9-5.9s1.8-3.1,3.9-2C-385.7-416.9-384-414.2-384-412z"/>
			<path class="st15" d="M-384-412c0,2.2-1.8,3.1-3.9,2c-2.2-1.1-3.9-3.7-3.9-5.9s1.8-3.1,3.9-2C-385.7-416.9-384-414.2-384-412z"/>
			<path class="st5" d="M-384-412c0,2.2-1.8,3.1-3.9,2c-2.2-1.1-3.9-3.7-3.9-5.9s1.8-3.1,3.9-2C-385.7-416.9-384-414.2-384-412z"/>
			<path class="st6" d="M-387.9-418c-2.2-1.1-3.9-0.2-3.9,2c0,1.2,0.5,2.5,1.3,3.6l5.6-2.8C-385.7-416.3-386.8-417.4-387.9-418z"/>
			<path class="st15" d="M-387.2-417.5l-1,0.6c-0.5,0.2-0.9,0.6-0.9,1.3c0,1.2,1,2.6,2.1,3.2c0.6,0.3,1.1,0.3,1.4,0.2l1.4-0.7
				C-384.4-414.6-385.6-416.4-387.2-417.5z"/>
			<path class="st5" d="M-387.2-417.5l-1,0.6c-0.5,0.2-0.9,0.6-0.9,1.3c0,1.2,1,2.6,2.1,3.2c0.6,0.3,1.1,0.3,1.4,0.2l1.4-0.7
				C-384.4-414.6-385.6-416.4-387.2-417.5z"/>
			<path class="st15" d="M-384.8-413.5c0,1.2-1,1.7-2.1,1.1s-2.1-2-2.1-3.2c0-1.2,1-1.7,2.1-1.1S-384.8-414.7-384.8-413.5z"/>
			<path class="st15" d="M-381.2-404.7v-2.2l-11.1,5.6v2.2L-381.2-404.7z"/>
			<path class="st5" d="M-381.2-404.7v-2.2l-11.1,5.6v2.2L-381.2-404.7z"/>
			<path class="st1" d="M-402.2-419.6l24.2,12.1l-11.1,5.6l-24.2-12.1L-402.2-419.6z"/>
			<path class="st15" d="M-378.1-405.3v-2.2l-11.1,5.6v2.2L-378.1-405.3z"/>
			<path class="st5" d="M-378.1-405.3v-2.2l-11.1,5.6v2.2L-378.1-405.3z"/>
			<path class="st15" d="M-413.3-409.6v-4.4l24.2,12.1v2.2l-3.2-1.6v2.2L-413.3-409.6z"/>
			<path class="st2" d="M-413.3-409.6v-4.4l24.2,12.1v2.2l-3.2-1.6v2.2L-413.3-409.6z"/>
			<path class="st5" d="M-398.3-421v-26.8l-18.6,9.3v26.8L-398.3-421z"/>
			<path class="st15" d="M-413.3-428.1l11.1-5.6l16.3,10c3,1.8,4.8,5,4.8,8.4v6.1l-11.1,5.6l-21-10.5V-428.1z"/>
			<g>
				<path class="st1" d="M-393.8-414.1l-1.5-0.8c-0.6-0.3-1.4,0.1-1.4,0.9v5.1c0,1.1,0.6,2,1.5,2.5l2.1,1.1c0.4,0.2,1,0.2,1.4,0
					l10.4-5.2v-4.5c0-1.4-0.3-2.9-0.9-4.1l-10.3,5.2C-392.9-413.9-393.4-413.9-393.8-414.1z"/>
				<path class="st1" d="M-410.6-422.5v0.4l6.3,3.2v-0.4L-410.6-422.5z"/>
				<path class="st1" d="M-410.6-421.5v0.4l6.3,3.2v-0.4L-410.6-421.5z"/>
				<path class="st1" d="M-410.6-420.6v0.4l6.3,3.2v-0.4L-410.6-420.6z"/>
				<path class="st1" d="M-410.6-419.6v0.4l6.3,3.2v-0.4L-410.6-419.6z"/>
				<path class="st1" d="M-410.6-418.6v0.4l6.3,3.2v-0.4L-410.6-418.6z"/>
			</g>
			<path class="st2" d="M-413.3-414v-14.1l16.3,10c3,1.8,4.8,5,4.8,8.4v6.1L-413.3-414z"/>
			<path class="st2" d="M-413.3-414v-14.1l16.3,10c3,1.8,4.8,5,4.8,8.4v6.1L-413.3-414z"/>
			<path class="st5" d="M-382.1-419.3l-11,5.5l-0.2-0.1c0.6,1.3,1,2.8,1,4.3v6.1l11.1-5.6v-6.1C-381.2-416.6-381.5-418-382.1-419.3z
				"/>
			<path class="st15" d="M-417.3-458.8l-18.6,9.3v3l19.4,9.7l18.6-9.3v-3L-417.3-458.8z"/>
			<path class="st2" d="M-436-446.5v-3l19.4,9.7v3L-436-446.5z"/>
			<g transform="matrix(-0.6313,0.7756,-0.7756,-0.6313,563.101,-2.7664)">
				
					<ellipse transform="matrix(0.6313 -0.7756 0.7756 0.6313 -699.2411 585.0219)" class="st18" cx="265.6" cy="1027.9" rx="0" ry="0.3"/>
			</g>
			<g transform="matrix(-0.6313,0.7756,-0.7756,-0.6313,500.151,75.1621)">
				
					<ellipse transform="matrix(-0.203 -0.9792 0.9792 -0.203 -800.4193 1414.3723)" class="st18" cx="175.4" cy="1032.9" rx="0" ry="0.3"/>
			</g>
			<path class="st5" d="M-397.9-446.1v-3l-18.6,9.3v3L-397.9-446.1z"/>
			<path class="st1" d="M-413.5-434.2c-0.9,0-1.6,0.4-1.6,0.8v15.5c0,0.4,0.7,0.8,1.6,0.8c0.9,0,1.6-0.4,1.6-0.8v-15.5
				C-412-433.9-412.7-434.2-413.5-434.2z"/>
			
				<ellipse transform="matrix(0.203 0.9792 -0.9792 0.203 -754.0162 59.4826)" class="st19" cx="-413.5" cy="-433.4" rx="0" ry="0.3"/>
			<path class="st1" d="M-410.7-414c0-0.3-0.2-0.6-0.5-0.7c-0.2-0.1-0.3-0.1-0.4,0c-0.3,0.1-0.6,0.1-0.9-0.1
				c-0.3-0.2-0.5-0.5-0.5-0.9V-443h-1.2v27.3c0,0.8,0.4,1.5,1.1,1.9c0.4,0.2,0.8,0.3,1.2,0.3c0.3,0,0.7-0.1,1-0.2
				C-410.9-413.7-410.7-413.8-410.7-414z"/>
			<path class="st1" d="M-413-434.2v0.3c0.4,0.1,0.6,0.2,0.6,0.4c0,0.3-0.5,0.5-1.2,0.5s-1.2-0.2-1.2-0.5c0-0.2,0.2-0.3,0.6-0.4
				v-0.3c-0.6,0.1-1,0.4-1,0.7v15.5c0,0.4,0.7,0.8,1.6,0.8c0.9,0,1.6-0.4,1.6-0.8v-15.5C-412-433.8-412.4-434.1-413-434.2z"/>
			<path class="st13" d="M-413.5-432.6c-0.9,0-1.6-0.4-1.6-0.8v15.5c0,0.4,0.7,0.8,1.6,0.8c0.9,0,1.6-0.4,1.6-0.8v-15.5
				C-412-433-412.7-432.6-413.5-432.6z"/>
			
				<ellipse transform="matrix(0.203 0.9792 -0.9792 0.203 -763.3364 51.8964)" class="st20" cx="-413.5" cy="-443" rx="0" ry="0.2"/>
			<path class="st1" d="M-405.6-413.9c-2.5-1.2-4.7-1.3-6.3-0.5l-4.5,2.3c-1.5,0.8-2.5,2.5-2.5,4.9c0,4.8,3.9,10.7,8.8,13.1
				c2.7,1.3,5,1.3,6.6,0.3l3.7-1.8c1.8-0.7,3-2.5,3-5.1C-396.8-405.5-400.7-411.4-405.6-413.9z"/>
			<path class="st2" d="M-401.4-398.4c0,4.8-3.9,6.8-8.8,4.4s-8.8-8.3-8.8-13.1c0-4.8,3.9-6.8,8.8-4.4
				C-405.3-409.1-401.4-403.2-401.4-398.4z"/>
			<path class="st15" d="M-405.8-400.6c0,2.4-1.9,3.3-4.3,2.1c-2.4-1.2-4.3-4.1-4.3-6.4c0-2.4,1.9-3.3,4.3-2.1
				C-407.8-405.9-405.8-403-405.8-400.6z"/>
			<path class="st15" d="M-406.2-400.8c0,2.2-1.8,3.1-3.9,2c-2.2-1.1-3.9-3.7-3.9-5.9c0-2.2,1.8-3.1,3.9-2
				C-408-405.6-406.2-403-406.2-400.8z"/>
			<path class="st15" d="M-406.2-400.8c0,2.2-1.8,3.1-3.9,2c-2.2-1.1-3.9-3.7-3.9-5.9c0-2.2,1.8-3.1,3.9-2
				C-408-405.6-406.2-403-406.2-400.8z"/>
			<path class="st5" d="M-406.2-400.8c0,2.2-1.8,3.1-3.9,2c-2.2-1.1-3.9-3.7-3.9-5.9c0-2.2,1.8-3.1,3.9-2
				C-408-405.6-406.2-403-406.2-400.8z"/>
			<path class="st6" d="M-410.1-406.7c-2.2-1.1-3.9-0.2-3.9,2c0,1.2,0.5,2.5,1.3,3.6l5.6-2.8C-407.9-405.1-409-406.1-410.1-406.7z"
				/>
			<path class="st15" d="M-409.4-406.3l-1,0.6c-0.5,0.2-0.9,0.6-0.9,1.3c0,1.2,1,2.6,2.1,3.2c0.6,0.3,1.1,0.3,1.4,0.2l1.4-0.7
				C-406.6-403.4-407.8-405.2-409.4-406.3z"/>
			<path class="st5" d="M-409.4-406.3l-1,0.6c-0.5,0.2-0.9,0.6-0.9,1.3c0,1.2,1,2.6,2.1,3.2c0.6,0.3,1.1,0.3,1.4,0.2l1.4-0.7
				C-406.6-403.4-407.8-405.2-409.4-406.3z"/>
			<path class="st15" d="M-407-402.3c0,1.2-1,1.7-2.1,1.1c-1.2-0.6-2.1-2-2.1-3.2c0-1.2,1-1.7,2.1-1.1
				C-407.9-404.9-407-403.5-407-402.3z"/>
			<path class="st3" d="M-410.1-411.6c-4.8-2.4-8.8-0.5-8.8,4.4c0,4.8,3.9,10.7,8.8,13.1s8.8,0.5,8.8-4.4
				C-401.4-403.2-405.3-409.1-410.1-411.6z M-410.1-395.1c-4.3-2.1-7.7-7.3-7.7-11.6c0-4.3,3.5-6,7.7-3.9c4.3,2.1,7.7,7.3,7.7,11.6
				C-402.4-394.7-405.9-393-410.1-395.1z"/>
			<path class="st13" d="M-417.7-420.8l-3.8,2v-2.6l3.8-2V-420.8z"/>
			<path class="st6" d="M-425.2-440.4v5.8l3.3,1.7l4.2,6.7v-10.4L-425.2-440.4z"/>
		</g>
	</g>
	<g transform="matrix(0.899682,0,0,0.697886,43.3511,166.865)">
		<g transform="matrix(3.4579,0,0,3.99408,821.704,590.037)">
			<g transform="matrix(1,0,0,1,-40,-24)">
				<g>
					<path class="st21" d="M-3-23.5c0-0.1,0-0.1,0-0.2c0-0.8-0.7-1.5-1.5-1.5c-0.5,0-0.9,0.2-1.2,0.6c-0.2-0.1-0.5-0.2-0.7-0.2
						C-7.3-24.8-8-24-8-23.1c0,0.9,0.8,1.7,1.7,1.7c0.3,0,0.6-0.1,0.9-0.3c0.1,0.9,0.8,1.6,1.8,1.6c1,0,1.8-0.8,1.8-1.8
						C-1.9-22.6-2.3-23.2-3-23.5z"/>
				</g>
			</g>
		</g>
		<g transform="matrix(2.78833,0,0,-3.59766,823.237,607.32)">
			<g transform="matrix(1,0,0,1,-40,-24)">
				<g>
					<path class="st21" d="M-13.5,78.7c0-0.1,0-0.1,0-0.2c0-0.8-0.7-1.5-1.5-1.5c-0.5,0-0.9,0.2-1.2,0.6c-0.2-0.1-0.5-0.2-0.7-0.2
						c-0.9,0-1.7,0.8-1.7,1.7s0.8,1.7,1.7,1.7c0.3,0,0.6-0.1,0.9-0.3c0.1,0.9,0.8,1.6,1.8,1.6c1,0,1.8-0.8,1.8-1.8
						C-12.4,79.6-12.9,79-13.5,78.7z"/>
				</g>
			</g>
		</g>
		<g transform="matrix(-1.22417,0,0,1.76437,717.604,591.393)">
			<g transform="matrix(1,0,0,1,-40,-24)">
				<g>
					<path class="st21" d="M89.7-83c0-0.1,0-0.1,0-0.2c0-0.8-0.7-1.5-1.5-1.5c-0.5,0-0.9,0.2-1.2,0.6c-0.2-0.1-0.5-0.2-0.7-0.2
						c-0.9,0-1.7,0.8-1.7,1.7s0.8,1.7,1.7,1.7c0.3,0,0.6-0.1,0.9-0.3c0.1,0.9,0.8,1.6,1.8,1.6c1,0,1.8-0.8,1.8-1.8
						C90.8-82.1,90.4-82.7,89.7-83z"/>
				</g>
			</g>
		</g>
	</g>
	<g transform="matrix(0.792425,0,0,0.571174,434.376,416.583)">
		<path class="st22" d="M300.1,11.9c40.9,0,74.1,33.2,74.1,74.1c0,40.9-33.2,74.1-74.1,74.1c-40.9,0-74.1-33.2-74.1-74.1
			C226,45.1,259.2,11.9,300.1,11.9z M355.6,45.5l-55.2,40.8c-27.5,19.9-55,39.8-55,39.8L355.6,45.5z"/>
	</g>
</g>
</svg>
