<?xml version="1.0" encoding="utf-8"?>
<!-- Generator: Adobe Illustrator 24.0.0, SVG Export Plug-In . SVG Version: 6.00 Build 0)  -->
<svg version="1.1" id="Layer_1" xmlns="http://www.w3.org/2000/svg" xmlns:xlink="http://www.w3.org/1999/xlink" x="0px" y="0px"
	 viewBox="0 0 980 656.9" style="enable-background:new 0 0 980 656.9;" xml:space="preserve">
<style type="text/css">
	.st0{fill:#B46E55;}
	.st1{fill:none;}
	.st2{fill:#EBB39D;}
	.st3{fill:#D7978B;}
</style>
<g>
	<path class="st0" d="M762.1,463.9c-7.4-10.9-18.8-19.8-32.2-25c-0.9-0.4-1.9-0.6-2.9-0.6c-2.9,0-5.6,1.8-6.8,4.5
		c-1.2,2.7-0.8,5.7,1.2,8c11.2,12.8,23.9,32.2,20.2,52.5c-1.9,10.5-8,20.2-16.3,26c-7.2,5-15.7,7.5-25.3,7.5
		c-20.8,0-46.1-12.5-64.6-31.7c-7.9-8.2-14.9-17.3-21-26.9c-18.1-39.9-27.8-86.8-26.6-128.8c2.8-18.2,8.2-35.9,16.6-52.3
		c3.3-6.5,7-13.1,10.9-20.2c19.6-35.2,41.9-75.1,20.4-113.6c-13.2-23.5-39.8-37-73.2-37c-8.7,0-17.4,1-25.6,2.9
		c-19.6,4.6-37.4,12.9-54.7,21c-11.3,5.3-22,10.3-33,14.3c-18.1,6.5-37.5,9.8-57.6,9.8c-27.1,0-54.9-6.1-80.1-17.5
		c-21.2-9.6-38.6-18.9-53.4-28.5c-1.3-0.9-2.7-1.3-4.1-1.3c-2.9,0-5.5,1.7-6.8,4.4c-1.2,2.6-0.9,5.5,1,7.9
		c18.7,23,35.8,38.1,50.8,45c7,3.2,14.3,6,21.6,8.5c23.1,7.8,46.9,11.7,70.7,11.7c23.8,0,46.7-3.9,68.1-11.6
		c12.4-4.4,24.2-10,35.6-15.4c16.6-7.8,32.2-15.1,48.7-19c6.1-1.4,12.5-2.1,19-2.1c21.7,0,39.2,8.1,46.8,21.7
		c13.3,23.8-3.1,53.2-20.4,84.4c-3.9,6.9-7.9,14.1-11.4,21.1c-9.8,19.3-16.2,40.1-19.4,61.5c-18,55,2.4,117.9,30.8,149.2
		c7.1,11.3,15.4,22,24.7,31.7c24.3,25.3,57.4,41,86.4,41h0c15.8,0,30-4.4,42.4-13c14.9-10.4,25.2-26.7,28.4-44.6
		C774.1,492.6,771,476.9,762.1,463.9z"/>
	<g>
		<path class="st1" d="M700.3,565.5L700.3,565.5L700.3,565.5z"/>
		<path class="st2" d="M329.6,179.9c0.9-2.9,2.4-5.5,4.4-7.8c0.9-1,1.8-1.9,2.8-2.7c-8.8-2.6-17.4-5.7-25.8-9.5
			c-4.5,1.9-8,4.9-9.9,8.8c-2,4-2,8.7-0.2,13.2c6.8,3,13.8,5.8,20.8,8.2c2.8,0.9,5.5,1.8,8.3,2.6c-0.5-1.2-0.8-2.4-1-3.6
			C328.4,185.9,328.6,182.9,329.6,179.9z M362.4,187.4c0.4-3,1.4-6,2.9-8.6c0.6-1.1,1.3-2.1,2-3c-9.1-1.2-18.1-3-27-5.4
			c-1.5,1-2.9,2.2-4.2,3.6c-1.7,2-3,4.3-3.8,6.7c-0.8,2.5-1,5.1-0.5,7.7c0.3,1.8,0.9,3.5,1.9,5.2c10.1,2.8,20.3,4.8,30.6,6.1
			c-0.5-1-1-2.1-1.4-3.3C362.2,193.7,362,190.5,362.4,187.4z M307.3,158.3c-9.4-4.3-18-8.6-26-12.8c-1.3,0.4-2.6,0.9-3.7,1.5
			c-2.4,1.2-4.3,2.8-5.6,4.7c-1.4,2-2.3,4.3-2.5,6.9c9.8,9.7,19.1,17,27.6,21.4c-1.1-4.3-0.6-8.7,1.3-12.7
			C300.2,163.5,303.3,160.4,307.3,158.3z M429.5,173.4c-8.9,1.9-18,3.2-27.4,3.7c-2.1,3.1-3.3,7.6-3.1,12.2
			c0.1,4.8,1.7,9.1,4.4,11.8c10.7-0.6,21.2-2,31.4-4.3c-2.1-2.3-3.8-5.4-4.9-9.1C428.5,182.8,428.4,177.6,429.5,173.4z M398.6,177.3
			c-2.3,0.1-4.6,0.1-6.9,0.1c-6.9,0-13.8-0.4-20.7-1.1c-1.2,1.1-2.2,2.5-3.1,4c-1.3,2.3-2.2,4.8-2.5,7.5c-0.4,2.7-0.2,5.4,0.5,7.9
			c0.5,1.7,1.3,3.2,2.4,4.6c7.7,0.8,15.4,1.2,23.1,1.2c2.8,0,5.6-0.1,8.3-0.2c-2.2-3.1-3.5-7.3-3.7-11.9
			C395.9,185,396.8,180.7,398.6,177.3z M276.3,144.2c0.5-0.2,1-0.5,1.5-0.7c-7.7-4.2-14.8-8.4-21.3-12.7c-0.8-0.5-1.6-0.8-2.5-0.8
			c-1.7,0-3.3,1.1-4.1,2.7c-0.7,1.6-0.5,3.3,0.6,4.7c5.6,6.8,11,13,16.3,18.5c0.5-2.2,1.4-4.2,2.7-6
			C271.2,147.5,273.5,145.6,276.3,144.2z M641.6,197.6c-2.2-0.4-6.3-0.7-12-0.5c-5.7,0.2-9.7,0.6-12,0.9c-0.1,8.1-2.1,16.5-5.3,25.2
			c1.5,0.4,3.5,1,6.2,2c5.2,1.8,10.7,4,14.3,5.7c0.7,0.3,1.3,0.6,1.8,0.9C638.8,220.4,641.5,209,641.6,197.6z M591.9,263.9
			c-3.2,5.8-6.5,11.7-9.6,17.5l21.3,11c2.9-5.5,6-11,9.2-16.9c1.8-3.2,3.5-6.4,5.3-9.6c-4.7-2.9-16.1-9.1-21.1-11.5
			C595.4,257.6,593.7,260.8,591.9,263.9z M589.5,158c7.8,3,14.3,7.5,19,13.1c4.2-4.6,13.1-11.7,18.6-14.4c0.2-0.1,0.3-0.1,0.5-0.2
			c-5.8-7.2-15.3-15.7-30-21.3c-1.5,1.8-3.5,5.5-5.3,10.9C590.6,151.4,589.7,155.6,589.5,158z M742.5,479.3c0.8-1,1.6-2,2.4-2.8
			c2.2-2.3,4.5-4,6.9-5.1c2.8-1.3,5.7-1.9,8.7-1.6c0.7,0.1,1.4,0.2,2,0.3c-7.6-13.7-20.5-23.2-33.6-28.4c-2.3-0.9-4.8,0.2-5.8,2.4
			c-0.3,0.8-1,2.8,0.8,4.8C730.8,456.8,738.4,467.4,742.5,479.3z M633.5,234.5c-4.7-2.4-17-7.1-22.3-8.6c-3.4,8.5-7.8,17.1-12.6,26
			c1,0.5,2.3,1.1,3.9,2c3.7,1.9,8.3,4.4,12.1,6.5c2.3,1.3,3.9,2.2,5.1,3C624.7,254,629.6,244.3,633.5,234.5z M610.3,173.6
			c0.7,1,1.3,2,2,3.1c3.3,5.8,4.9,11.9,5.2,18.3c3.3-0.5,7.9-0.8,12-0.9c5.8-0.2,9.6,0,12.1,0.5c-0.4-9.9-2.9-19.8-8.3-29.6
			c-0.9-1.7-2.2-3.7-3.8-5.9c-0.1,0-0.2,0.1-0.3,0.1C623.5,161.5,613.9,169.8,610.3,173.6z M461.6,176c-1.4-3.6-2.5-8-2.4-12
			c-3,1.2-5.9,2.4-8.9,3.5c-5.7,2-11.5,3.8-17.5,5.2c-1.4,3.7-1.5,9.2,0,14.3c1.2,4.1,3.1,7.2,5.5,9.1c6.8-1.6,13.5-3.6,20.1-6
			c3.4-1.2,6.7-2.5,10-3.9C465.5,183.6,463.1,179.6,461.6,176z M602.3,295.2l-21.3-11c-0.2,0.3-0.3,0.6-0.5,0.9
			c-4.8,9.5-8.8,19.3-12,29.3c5.2,1.9,17.5,5.6,22.9,7.1c2.8-8.8,6.3-17.3,10.4-25.5C602,295.6,602.2,295.4,602.3,295.2z
			 M694.2,543.6c-0.3-1.3-0.6-2.5-1.1-3.5c-0.1-0.2-0.2-0.4-0.3-0.6c-6.8-0.8-13.9-2.8-21-5.7c0,1,0,2-0.2,3.2
			c-0.3,2.9-1.1,6-2.3,8.8c-1.7,4.4-4.2,7.9-7,10.1c9.3,3.9,18.8,6.4,28,7.5c0.2-0.2,0.4-0.4,0.6-0.7c0.8-0.9,1.4-2,2-3.1
			c1-2.2,1.7-4.9,1.8-7.8C695,549.1,694.7,546.2,694.2,543.6z M719.2,540.7c-1-1.2-2.1-2.3-3.3-3.2c-4.9,1.6-10.1,2.4-15.7,2.4
			c-1.3,0-2.7,0-4-0.2c0.3,1,0.7,2,0.9,3.2c0.7,2.9,0.9,6,0.7,9c-0.2,3.3-0.9,6.4-2.1,8.9c-0.5,1-1.1,2-1.7,2.9
			c2.1,0.2,4.2,0.3,6.3,0.3v1.5l0-1.5c8.5,0,16.5-1.3,23.9-3.9c0.8-1.8,1-3.6,1-5c0-2.4-0.6-5-1.7-7.6
			C722.5,545.2,721,542.9,719.2,540.7z M639.2,532.6c3.7-4.3,6.6-9.7,7.3-13.6c-4.6-3.5-9-7.5-13.1-11.7c-1.3-1.3-2.6-2.7-3.8-4.1
			c-1.8,3.3-4.9,6.7-7.8,9.3c-1.5,1.4-5.9,5-10.2,6.6c1.5,1.6,3,3.3,4.5,4.9c5,5.2,10.4,10,16,14.3
			C634.3,537.3,636.8,535.4,639.2,532.6z M668.7,536.5c0.2-1.5,0.2-2.9,0.1-4.1c-6.7-3-13.4-6.9-19.7-11.5
			c-1.2,4.6-4.3,9.8-7.6,13.6c-2.2,2.5-4.5,4.5-6.7,5.7c7.8,5.7,16,10.5,24.4,14.2c2.9-1.7,5.6-5.3,7.4-9.9
			C667.6,541.9,668.4,539.2,668.7,536.5z M746.2,529.6c-2-1.4-4.4-2.5-7-3.3c-1.6-0.5-3.2-0.8-4.8-1.1c-2.2,2.5-4.6,4.7-7.2,6.6
			c-2.5,1.8-5.2,3.3-8.1,4.5c0.8,0.8,1.6,1.6,2.4,2.5c2,2.4,3.6,4.9,4.8,7.5c1.4,3,2,6.1,2,8.9c0,1-0.1,2.2-0.4,3.5
			c4.6-1.9,9-4.3,13.2-7.2c4.5-3.1,8.5-6.8,12-10.9c-0.2-1.8-0.7-3.6-1.5-5.3C750.3,533.1,748.5,531.2,746.2,529.6z M764,505.2
			c-2-1.4-4.3-2.2-7-2.5c-2.4-0.2-4.9,0-7.7,0.6c-1.6,0.4-3.2,0.9-4.9,1.6c-1.3,6.4-4.1,12.4-7.9,17.6c1.2,0.2,2.4,0.5,3.5,0.9
			c2.9,0.9,5.6,2.2,7.9,3.7c2.7,1.8,4.7,4.1,6.1,6.7c0.6,1.2,1.1,2.4,1.4,3.6c6.2-8.2,10.6-17.8,12.5-28
			C766.8,507.4,765.2,506.1,764,505.2z M521.2,137.1c-10,3.5-19.6,7.6-29,12c-0.3,2.9,0.7,7.1,2.6,11.5c2.1,4.6,4.9,8.5,7.4,10.3
			c8.9-4.1,17.7-8,26.5-11c-2.7-3.4-5.1-8.8-6.4-13.7C521.8,143.8,521.1,140.2,521.2,137.1z M557.2,129.6
			c-6.6,0.3-13.1,1.2-19.4,2.7c-4.5,1.1-9,2.3-13.4,3.8c-0.4,2.2,0,5.5,1,9.3c1.5,5.5,4.2,10.9,6.6,13.5c3.7-1.2,7.4-2.3,11.2-3.1
			c4.9-1.1,9.9-1.8,14.9-2.1c-1.4-4.4-1.9-10.4-2-11.9C556,139.4,555.9,133.8,557.2,129.6z M492.2,161.8c-1.9-4.2-2.9-8.1-3-11.3
			c-1.9,0.9-3.7,1.7-5.6,2.6c-7.2,3.4-14.2,6.7-21.2,9.6c-0.5,3.2,0.2,7.6,2,12.2c1.8,4.6,4.5,8.2,7.3,10c7.6-3.2,14.9-6.7,22.2-10
			c1.8-0.9,3.7-1.7,5.5-2.6C496.4,169.6,493.9,165.5,492.2,161.8z M586.6,157c0.5-4.4,2.4-10.2,2.9-11.7c0.9-2.6,2.8-7.7,5.2-11
			c-8.8-3-19.4-4.8-32-4.8c-0.8,0-1.5,0-2.3,0c-0.9,2.3-1.5,6.5-1.2,12c0.3,5.3,1.2,9.6,2.1,12c0.5,0,1,0,1.6,0
			C571.5,153.4,579.5,154.6,586.6,157z M567.7,317.2c-2.7,8.9-4.7,18-6.1,27.2c0.3,0.1,0.7,0.2,1,0.2c3.5,0.8,9.3,1.7,14.5,2.4
			c3.2,0.4,6.1,0.7,8.2,0.9c1.3-8,3-15.9,5.4-23.6c-1.7-0.4-4-1.1-7.6-2.2C577,320.3,571,318.4,567.7,317.2z M627.4,500.7
			c-5.2-6-10-12.4-14.3-19.1c0,0,0,0,0,0c-0.1,0.1-0.1,0.2-0.2,0.2c-0.1,0.2-0.3,0.3-0.5,0.5c-0.3,0.3-0.6,0.6-0.9,0.9c0,0,0,0,0,0
			c-1.4,1.4-3.1,2.8-5,4.2c-0.1,0.1-0.2,0.2-0.3,0.2c-0.2,0.1-0.4,0.3-0.6,0.4c-0.2,0.1-0.4,0.3-0.6,0.4c-0.1,0.1-0.3,0.2-0.4,0.3
			c-0.3,0.2-0.7,0.4-1,0.7c-0.1,0.1-0.2,0.2-0.4,0.2c-0.2,0.2-0.5,0.3-0.7,0.4c-0.1,0.1-0.3,0.2-0.4,0.3c-0.2,0.1-0.4,0.2-0.7,0.4
			c-0.1,0.1-0.2,0.2-0.4,0.2c-0.2,0.1-0.5,0.3-0.8,0.4c0,0-0.1,0.1-0.2,0.1c-0.2,0.1-0.4,0.2-0.6,0.3c-0.2,0.1-0.3,0.2-0.5,0.2
			c-0.2,0.1-0.4,0.2-0.6,0.3c-0.3,0.2-0.6,0.3-1,0.5c-0.2,0.1-0.4,0.2-0.6,0.2c-0.2,0.1-0.5,0.2-0.7,0.3c-0.2,0.1-0.5,0.2-0.7,0.3
			c-0.3,0.1-0.6,0.2-0.9,0.3c-0.2,0-0.3,0.1-0.5,0.2c-0.4,0.1-0.8,0.2-1.2,0.3c-0.1,0-0.2,0-0.2,0.1c5,7.7,10.5,15.1,16.5,22.1
			c2.8-0.7,6.7-3,10.4-6.3C623.4,507,626.2,503.4,627.4,500.7z M764.3,473.8c0,0-0.1,0-0.1,0c-1.3-0.5-2.7-0.8-4.1-1
			c-2.4-0.2-4.8,0.2-7.1,1.3c-2,1-4,2.5-6,4.5c-0.8,0.9-1.7,1.8-2.6,3c-0.3,0.4-0.6,0.8-0.9,1.2c1.6,6,2.3,12.3,1.5,18.7
			c1.2-0.5,2.5-0.8,3.7-1.1c3.1-0.7,5.9-0.9,8.6-0.7c3.2,0.3,6,1.3,8.4,3c0.9,0.6,1.9,1.5,2.9,2.6
			C770.2,493.2,768.4,482.7,764.3,473.8z"/>
		<path class="st3" d="M611.5,478.9c-1.5-3.4-3-6.9-4.4-10.4c-2-5-3.9-10-5.7-15.1c-8.2-23.7-13.4-48.5-15.5-73
			c-0.5-5.8-0.8-11.6-1-17.4c-0.1-4.1-0.1-8.1,0-12.1l0,0c-0.1,0-0.1,0-0.2,0c-1.9-0.1-4.4-0.4-7.2-0.7c-0.8-0.1-1.5-0.2-2.3-0.3
			c-0.3,0-0.6-0.1-0.9-0.1c-0.3,0-0.5-0.1-0.8-0.1c-0.4-0.1-0.8-0.1-1.2-0.2c-0.2,0-0.4-0.1-0.5-0.1c-0.5-0.1-1.1-0.2-1.6-0.2
			c-0.1,0-0.2,0-0.3,0c-1.9-0.3-3.7-0.6-5.3-0.9c-0.3,0-0.5-0.1-0.8-0.2c-0.2,0-0.4-0.1-0.6-0.1c-0.8-0.2-1.5-0.3-2.1-0.5
			c-0.1,0-0.2,0-0.2-0.1l0,0c-0.8,2.6-1.6,5.3-2.2,8.1c-1,4.1-1.8,8.4-2.4,12.7c-2.6,18.4-1.8,38.3,2.6,57.8
			c4,18,10.8,34.7,19.4,48.8c2.3,3.7,4.7,7.2,7.2,10.5c1.8,2.3,3.6,4.5,5.5,6.6l0,0c0,0,0.1,0,0.2,0c0,0,0,0,0,0
			c0.3,0,0.6-0.1,0.9-0.2c0.4-0.1,0.8-0.2,1.2-0.3l0,0c2.6-0.8,5.8-2.4,8.7-4.3c0.1,0,0.2-0.1,0.2-0.2c0.7-0.5,1.4-0.9,2-1.4
			c0.2-0.1,0.3-0.2,0.5-0.3c0.2-0.2,0.5-0.4,0.7-0.5c0.2-0.1,0.3-0.2,0.5-0.3c0.2-0.2,0.5-0.4,0.8-0.6c0,0,0.1-0.1,0.1-0.1
			c1.7-1.4,3.2-2.8,4.2-4.1c0.1-0.2,0.2-0.3,0.4-0.5c0,0,0,0,0,0C611.4,478.9,611.5,478.9,611.5,478.9
			C611.5,478.9,611.5,478.9,611.5,478.9z"/>
		<path class="st0" d="M762.1,463.9c-7.4-10.9-18.8-19.8-32.2-25c-0.9-0.4-1.9-0.6-2.9-0.6c-2.9,0-5.6,1.8-6.8,4.5
			c-1.2,2.7-0.8,5.7,1.2,8c11.2,12.8,23.9,32.2,20.2,52.5c-1.9,10.5-8,20.2-16.3,26c-7.2,5-15.7,7.5-25.3,7.5
			c-20.8,0-46.1-12.5-64.6-31.7c-7.9-8.2-14.9-17.3-21-26.9c-18.1-39.9-27.8-86.8-26.6-128.8c2.8-18.2,8.2-35.9,16.6-52.3
			c3.3-6.5,7-13.1,10.9-20.2c19.6-35.2,41.9-75.1,20.4-113.6c-13.2-23.5-39.8-37-73.2-37c-8.7,0-17.4,1-25.6,2.9
			c-19.6,4.6-37.4,12.9-54.7,21c-11.3,5.3-22,10.3-33,14.3c-18.1,6.5-37.5,9.8-57.6,9.8c-27.1,0-54.9-6.1-80.1-17.5
			c-21.2-9.6-38.6-18.9-53.4-28.5c-1.3-0.9-2.7-1.3-4.1-1.3c-2.9,0-5.5,1.7-6.8,4.4c-1.2,2.6-0.9,5.5,1,7.9
			c18.7,23,35.8,38.1,50.8,45c7,3.2,14.3,6,21.6,8.5c23.1,7.8,46.9,11.7,70.7,11.7c23.8,0,46.7-3.9,68.1-11.6
			c12.4-4.4,24.2-10,35.6-15.4c16.6-7.8,32.2-15.1,48.7-19c6.1-1.4,12.5-2.1,19-2.1c21.7,0,39.2,8.1,46.8,21.7
			c13.3,23.8-3.1,53.2-20.4,84.4c-3.9,6.9-7.9,14.1-11.4,21.1c-9.8,19.3-16.2,40.1-19.4,61.5c-18,55,2.4,117.9,30.8,149.2
			c7.1,11.3,15.4,22,24.7,31.7c24.3,25.3,57.4,41,86.4,41h0c15.8,0,30-4.4,42.4-13c14.9-10.4,25.2-26.7,28.4-44.6
			C774.1,492.6,771,476.9,762.1,463.9z M723.8,448.8c-1.7-2-1.1-4-0.8-4.8c1-2.2,3.5-3.3,5.8-2.4c13.1,5.2,26.1,14.7,33.6,28.4
			c-0.7-0.1-1.4-0.3-2-0.3c-3-0.3-5.9,0.3-8.7,1.6c-2.3,1.1-4.7,2.9-6.9,5.1c-0.8,0.8-1.6,1.7-2.4,2.8
			C738.4,467.4,730.8,456.8,723.8,448.8z M266.9,155.9c-5.3-5.5-10.8-11.6-16.3-18.5c-1.1-1.4-1.4-3.1-0.6-4.7
			c0.8-1.6,2.4-2.7,4.1-2.7c0.9,0,1.7,0.3,2.5,0.8c6.5,4.3,13.6,8.5,21.3,12.7c-0.5,0.2-1,0.4-1.5,0.7c-2.8,1.4-5.1,3.3-6.7,5.7
			C268.3,151.7,267.4,153.7,266.9,155.9z M298.3,167.3c-1.9,3.9-2.4,8.3-1.3,12.7c-8.4-4.5-17.7-11.7-27.6-21.4
			c0.2-2.6,1.1-4.9,2.5-6.9c1.4-1.9,3.3-3.5,5.6-4.7c1.1-0.6,2.4-1,3.7-1.5c8,4.3,16.6,8.5,26,12.8
			C303.3,160.4,300.2,163.5,298.3,167.3z M321.6,190c-7.1-2.4-14.1-5.1-20.8-8.2c-1.8-4.5-1.8-9.1,0.2-13.2c1.9-3.8,5.4-6.9,9.9-8.8
			c8.4,3.8,17,6.9,25.8,9.5c-1,0.8-1.9,1.7-2.8,2.7c-2,2.3-3.5,5-4.4,7.8c-0.9,3-1.1,6-0.6,9c0.2,1.2,0.5,2.5,1,3.6
			C327.2,191.8,324.4,190.9,321.6,190z M333.8,193.7c-1-1.6-1.6-3.4-1.9-5.2c-0.4-2.5-0.2-5.1,0.5-7.7c0.8-2.5,2-4.8,3.8-6.7
			c1.2-1.4,2.6-2.6,4.2-3.6c8.9,2.4,17.9,4.2,27,5.4c-0.8,0.9-1.4,1.9-2,3c-1.5,2.6-2.5,5.5-2.9,8.6c-0.4,3.1-0.2,6.3,0.6,9.1
			c0.4,1.1,0.8,2.2,1.4,3.3C354.1,198.5,343.9,196.4,333.8,193.7z M391.3,201.5c-7.7,0-15.4-0.4-23.1-1.2c-1-1.4-1.8-2.9-2.4-4.6
			c-0.7-2.4-0.9-5.1-0.5-7.9c0.4-2.6,1.2-5.2,2.5-7.5c0.9-1.5,1.9-2.9,3.1-4c6.9,0.8,13.8,1.1,20.7,1.1c2.3,0,4.6,0,6.9-0.1
			c-1.8,3.4-2.7,7.7-2.6,12.1c0.1,4.6,1.5,8.7,3.7,11.9C396.9,201.4,394.1,201.5,391.3,201.5z M403.4,201.1c-2.6-2.7-4.3-7-4.4-11.8
			c-0.1-4.7,1-9.1,3.1-12.2c9.3-0.5,18.5-1.8,27.4-3.7c-1.1,4.1-1,9.4,0.5,14.3c1.1,3.7,2.8,6.8,4.9,9.1
			C424.6,199.1,414.1,200.5,403.4,201.1z M458.5,190c-6.6,2.4-13.3,4.4-20.1,6c-2.4-1.9-4.4-5-5.5-9.1c-1.5-5.1-1.4-10.5,0-14.3
			c6-1.4,11.8-3.1,17.5-5.2c3-1.1,6-2.2,8.9-3.5c-0.2,3.9,0.9,8.4,2.4,12c1.5,3.6,3.8,7.6,6.8,10.2
			C465.2,187.5,461.9,188.8,458.5,190z M493.9,174.8c-7.2,3.4-14.6,6.9-22.2,10c-2.7-1.8-5.4-5.4-7.3-10c-1.8-4.5-2.5-9-2-12.2
			c7-3,14-6.2,21.2-9.6c1.9-0.9,3.7-1.7,5.6-2.6c0.1,3.2,1.1,7.1,3,11.3c1.7,3.7,4.2,7.8,7.1,10.5
			C497.5,173.1,495.7,173.9,493.9,174.8z M502.4,170.8c-2.5-1.8-5.4-5.7-7.4-10.3c-2-4.4-2.9-8.6-2.6-11.5c9.4-4.3,19-8.5,29-12
			c-0.2,3.2,0.6,6.7,1.2,9c1.3,4.9,3.7,10.3,6.4,13.7C520,162.9,511.3,166.7,502.4,170.8z M543.2,155.6c-3.8,0.9-7.5,2-11.2,3.1
			c-2.3-2.6-5.1-8-6.6-13.5c-1-3.8-1.4-7.1-1-9.3c4.4-1.4,8.8-2.7,13.4-3.8c6.3-1.5,12.8-2.4,19.4-2.7c-1.3,4.2-1.1,9.9-1,12
			c0.1,1.5,0.5,7.6,2,11.9C553,153.8,548,154.5,543.2,155.6z M586.6,157c-7.1-2.4-15.1-3.6-23.8-3.6c-0.5,0-1,0-1.6,0
			c-0.9-2.4-1.8-6.7-2.1-12c-0.3-5.5,0.3-9.6,1.2-12c0.8,0,1.5,0,2.3,0c12.6,0,23.2,1.9,32,4.8c-2.4,3.3-4.3,8.3-5.2,11
			C589,146.7,587.1,152.6,586.6,157z M608.5,171.2c-4.7-5.6-11.2-10.1-19-13.1c0.2-2.4,1.1-6.6,2.8-11.8c1.8-5.3,3.8-9.1,5.3-10.9
			c14.7,5.6,24.2,14.1,30,21.3c-0.2,0.1-0.3,0.1-0.5,0.2C621.6,159.4,612.7,166.6,608.5,171.2z M612.3,176.7c-0.6-1.1-1.2-2.1-2-3.1
			c3.5-3.8,13.2-12.1,18.8-14.4c0.1,0,0.2-0.1,0.3-0.1c1.6,2.2,2.8,4.2,3.8,5.9c5.5,9.8,7.9,19.6,8.3,29.6
			c-2.5-0.5-6.3-0.7-12.1-0.5c-4,0.1-8.7,0.4-12,0.9C617.2,188.6,615.6,182.5,612.3,176.7z M617.6,197.9c2.3-0.4,6.4-0.7,12-0.9
			c5.8-0.2,9.8,0.1,12,0.5c-0.1,11.4-2.8,22.9-7,34.1c-0.5-0.3-1.1-0.6-1.8-0.9c-3.6-1.7-9.1-3.9-14.3-5.7c-2.8-1-4.8-1.6-6.2-2
			C615.5,214.4,617.5,206,617.6,197.9z M611.2,225.9c5.4,1.5,17.6,6.2,22.3,8.6c-3.9,9.8-8.8,19.5-13.9,28.9c-1.2-0.7-2.8-1.7-5.1-3
			c-3.8-2.1-8.4-4.6-12.1-6.5c-1.7-0.9-2.9-1.5-3.9-2C603.4,243,607.8,234.3,611.2,225.9z M591.9,263.9c1.8-3.2,3.5-6.3,5.2-9.4
			c5,2.4,16.4,8.6,21.1,11.5c-1.8,3.2-3.6,6.5-5.3,9.6c-3.2,5.8-6.3,11.4-9.2,16.9l-21.3-11C585.4,275.6,588.7,269.7,591.9,263.9z
			 M580.5,285c0.2-0.3,0.3-0.6,0.5-0.9l21.3,11c-0.1,0.2-0.2,0.5-0.4,0.7c-4.2,8.2-7.7,16.8-10.4,25.5c-5.4-1.4-17.7-5.2-22.9-7.1
			C571.7,304.3,575.7,294.5,580.5,285z M567.7,317.2c3.3,1.2,9.3,3.1,15.3,4.9c3.5,1,5.9,1.7,7.6,2.2c-2.3,7.7-4.1,15.6-5.4,23.6
			c-2-0.1-5-0.4-8.2-0.9c-5.2-0.7-11-1.6-14.5-2.4c-0.4-0.1-0.7-0.2-1-0.2C563,335.2,565,326.1,567.7,317.2z M591.2,491.8
			C591.2,491.8,591.2,491.8,591.2,491.8c-0.1,0-0.1,0-0.2,0l0,0c-1.9-2.1-3.7-4.3-5.5-6.6c-2.5-3.3-5-6.8-7.2-10.5
			c-8.7-14.1-15.4-30.8-19.4-48.8c-4.4-19.6-5.3-39.4-2.6-57.8c0.6-4.3,1.4-8.5,2.4-12.7c0.7-2.7,1.4-5.4,2.2-8.1l0,0
			c0.1,0,0.2,0,0.2,0.1c0.6,0.1,1.3,0.3,2.1,0.5c0.2,0,0.4,0.1,0.6,0.1c0.3,0,0.5,0.1,0.8,0.2c1.6,0.3,3.4,0.6,5.3,0.9
			c0.1,0,0.2,0,0.3,0c0.5,0.1,1,0.2,1.6,0.2c0.2,0,0.4,0.1,0.5,0.1c0.4,0.1,0.8,0.1,1.2,0.2c0.3,0,0.5,0.1,0.8,0.1
			c0.3,0,0.6,0.1,0.9,0.1c3.6,0.5,7.1,0.9,9.5,1c0.1,0,0.1,0,0.2,0l0,0c-0.1,4-0.1,8,0,12.1c0.1,5.8,0.5,11.6,1,17.4
			c2.1,24.5,7.4,49.2,15.5,73c1.8,5.1,3.6,10.1,5.7,15.1c1.4,3.5,2.9,7,4.4,10.4v0c0,0-0.1,0.1-0.1,0.1c0,0,0,0,0,0
			c-0.1,0.2-0.2,0.3-0.4,0.5c-1,1.3-2.5,2.7-4.2,4.1c0,0-0.1,0.1-0.1,0.1c-0.2,0.2-0.5,0.4-0.8,0.6c-0.2,0.1-0.3,0.2-0.5,0.3
			c-0.2,0.2-0.5,0.4-0.7,0.5c-0.2,0.1-0.3,0.2-0.5,0.3c-3.6,2.5-7.7,4.8-11,5.8l0,0c-0.4,0.1-0.8,0.2-1.2,0.3
			C591.8,491.7,591.5,491.7,591.2,491.8z M592.9,494.5c0.1,0,0.2,0,0.2-0.1c0.4-0.1,0.8-0.2,1.2-0.3c0.2,0,0.3-0.1,0.5-0.2
			c0.3-0.1,0.6-0.2,0.9-0.3c0.2-0.1,0.5-0.2,0.7-0.3s0.5-0.2,0.7-0.3c0.2-0.1,0.4-0.2,0.6-0.2c0.3-0.1,0.6-0.3,1-0.5
			c0.2-0.1,0.4-0.2,0.6-0.3c0.2-0.1,0.3-0.2,0.5-0.2c0.2-0.1,0.4-0.2,0.6-0.3c0,0,0.1-0.1,0.2-0.1c0.3-0.1,0.5-0.3,0.8-0.4
			c0.1-0.1,0.2-0.2,0.4-0.2c0.2-0.1,0.4-0.2,0.7-0.4c0.1-0.1,0.3-0.2,0.4-0.3c0.2-0.1,0.5-0.3,0.7-0.4c0.1-0.1,0.2-0.2,0.4-0.2
			c0.3-0.2,0.7-0.4,1-0.7c0.1-0.1,0.3-0.2,0.4-0.3c0.2-0.1,0.4-0.3,0.6-0.4c0.2-0.1,0.4-0.3,0.6-0.4c0.1-0.1,0.2-0.2,0.3-0.2
			c1.8-1.3,3.5-2.8,5-4.2c0,0,0,0,0,0c0.3-0.3,0.6-0.6,0.9-0.9c0.2-0.2,0.3-0.3,0.5-0.5c0.1-0.1,0.1-0.2,0.2-0.2c0,0,0,0,0,0
			c4.3,6.7,9.1,13.1,14.3,19.1c-1.2,2.7-4,6.2-7.6,9.5c-3.7,3.4-7.6,5.7-10.4,6.3C603.4,509.6,597.9,502.2,592.9,494.5z
			 M616.1,523.9c-1.5-1.6-3-3.2-4.5-4.9c4.4-1.6,8.7-5.2,10.2-6.6c2.9-2.6,6-6,7.8-9.3c1.2,1.4,2.5,2.8,3.8,4.1
			c4.1,4.2,8.5,8.2,13.1,11.7c-0.7,3.9-3.5,9.3-7.3,13.6c-2.4,2.8-4.9,4.7-7.2,5.6C626.4,533.9,621,529.1,616.1,523.9z M659.2,554.4
			c-8.4-3.8-16.6-8.5-24.4-14.2c2.2-1.2,4.5-3.1,6.7-5.7c3.3-3.8,6.4-9,7.6-13.6c6.3,4.6,13,8.4,19.7,11.5c0.1,1.2,0.1,2.6-0.1,4.1
			c-0.3,2.6-1,5.4-2.1,8.1C664.7,549.2,662,552.7,659.2,554.4z M691,562.7c-0.2,0.2-0.4,0.5-0.6,0.7c-9.2-1.1-18.7-3.7-28-7.5
			c2.8-2.2,5.2-5.8,7-10.1c1.2-2.9,2-5.9,2.3-8.8c0.1-1.1,0.2-2.2,0.2-3.2c7.1,2.9,14.2,4.9,21,5.7c0.1,0.2,0.2,0.4,0.3,0.6
			c0.4,1,0.8,2.2,1.1,3.5c0.6,2.7,0.8,5.5,0.7,8.2c-0.2,2.9-0.8,5.6-1.8,7.8C692.5,560.7,691.8,561.8,691,562.7z M724.2,560.1
			c-7.5,2.6-15.5,3.9-23.9,3.9l0,1.5V564c-2.1,0-4.2-0.1-6.3-0.3c0.6-0.9,1.2-1.8,1.7-2.9c1.2-2.5,1.9-5.6,2.1-8.9
			c0.2-3-0.1-6-0.7-9c-0.2-1.1-0.6-2.2-0.9-3.2c1.4,0.1,2.7,0.2,4,0.2c5.6,0,10.9-0.8,15.7-2.4c1.1,1,2.2,2,3.3,3.2
			c1.8,2.2,3.3,4.5,4.3,6.8c1.2,2.6,1.8,5.2,1.7,7.6C725.2,556.4,725,558.2,724.2,560.1z M741,551.5c-4.2,2.9-8.5,5.3-13.2,7.2
			c0.3-1.3,0.4-2.5,0.4-3.5c0-2.8-0.7-5.9-2-8.9c-1.2-2.6-2.8-5.1-4.8-7.5c-0.8-0.9-1.6-1.7-2.4-2.5c2.8-1.2,5.5-2.7,8.1-4.5
			c2.7-1.9,5.1-4.1,7.2-6.6c1.6,0.2,3.2,0.6,4.8,1.1c2.7,0.8,5,1.9,7,3.3c2.3,1.6,4,3.5,5.2,5.6c0.9,1.6,1.4,3.4,1.5,5.3
			C749.5,544.6,745.4,548.3,741,551.5z M755.5,537.4c-0.3-1.2-0.8-2.5-1.4-3.6c-1.4-2.6-3.5-4.8-6.1-6.7c-2.3-1.6-4.9-2.8-7.9-3.7
			c-1.2-0.4-2.3-0.7-3.5-0.9c3.8-5.2,6.6-11.2,7.9-17.6c1.7-0.7,3.3-1.2,4.9-1.6c2.8-0.6,5.3-0.8,7.7-0.6c2.7,0.3,5,1.1,7,2.5
			c1.2,0.8,2.7,2.2,4,4.1C766.1,519.6,761.8,529.2,755.5,537.4z M768.7,505.3c-1-1.1-2-2-2.9-2.6c-2.4-1.7-5.2-2.7-8.4-3
			c-2.7-0.3-5.5-0.1-8.6,0.7c-1.2,0.3-2.4,0.6-3.7,1.1c0.8-6.4,0.1-12.7-1.5-18.7c0.3-0.4,0.6-0.8,0.9-1.2c0.9-1.2,1.7-2.1,2.6-3
			c2-2,4-3.5,6-4.5c2.3-1.1,4.7-1.6,7.1-1.3c1.4,0.1,2.8,0.5,4.1,1c0,0,0.1,0,0.1,0C768.4,482.7,770.2,493.2,768.7,505.3z"/>
	</g>
</g>
<rect class="st1" width="980" height="656.9"/>
</svg>
